<?xml version="1.0" encoding="UTF-8" standalone="no"?>
<!-- Created with Inkscape (http://www.inkscape.org/) -->

<svg
   width="40.24699mm"
   height="41.386513mm"
   viewBox="0 0 40.24699 41.386513"
   version="1.1"
   id="svg4739"
   inkscape:export-filename="cuda.svg"
   inkscape:export-xdpi="96"
   inkscape:export-ydpi="96"
   xmlns:inkscape="http://www.inkscape.org/namespaces/inkscape"
   xmlns:sodipodi="http://sodipodi.sourceforge.net/DTD/sodipodi-0.dtd"
   xmlns="http://www.w3.org/2000/svg"
   xmlns:svg="http://www.w3.org/2000/svg">
  <sodipodi:namedview
     id="namedview4741"
     pagecolor="#ffffff"
     bordercolor="#000000"
     borderopacity="0.25"
     inkscape:showpageshadow="2"
     inkscape:pageopacity="0.0"
     inkscape:pagecheckerboard="0"
     inkscape:deskcolor="#d1d1d1"
     inkscape:document-units="mm"
     showgrid="false" />
  <defs
     id="defs4736" />
  <g
     inkscape:label="Layer 1"
     inkscape:groupmode="layer"
     id="layer1"
     transform="translate(-113.27481,-52.298294)">
    <path
       style="fill:#75b800;stroke-width:0.264583"
       d="m 127.29773,71.386761 v -1.019858 l 2.57969,-0.156654 c 1.46958,-0.08924 3.64358,-0.448038 5.05199,-0.833782 1.35977,-0.372419 3.26477,-0.989292 4.23334,-1.370824 0.96856,-0.381535 2.45149,-1.10739 3.2954,-1.613014 0.84391,-0.505621 1.49048,-1.051002 1.43683,-1.211958 -0.0537,-0.160954 -0.83622,-0.744392 -1.73904,-1.296527 l -1.6415,-1.003888 -1.74593,1.440127 c -0.96026,0.79207 -2.53504,1.853261 -3.4995,2.358202 -0.96447,0.504939 -2.40842,1.100381 -3.20878,1.323203 -0.80037,0.222821 -1.99378,0.42827 -2.64689,0.483584 -0.6492,0.05499 -1.7189,0.153495 -2.10513,0.188592 -0.002,-0.05848 -0.0132,-0.232976 -0.0132,-0.673012 0,-0.287031 0.032,-0.498811 0.0293,-0.740672 0.20983,0.02678 0.64682,0.01214 1.26906,-0.0438 0.59205,-0.05323 1.856,-0.280254 2.59161,-0.498705 0.73561,-0.21845 2.21573,-0.977844 3.28917,-1.687536 1.07344,-0.709695 2.60108,-1.958298 3.39477,-2.774675 l 1.44307,-1.484323 -0.54539,-0.730745 c -0.29996,-0.401907 -1.3617,-1.353336 -2.35944,-2.11428 -0.99773,-0.760944 -2.59231,-1.695103 -3.54351,-2.075907 -1.03577,-0.414658 -2.49887,-0.75057 -3.64769,-0.837468 l -1.91823,-0.145092 v -1.284728 -1.284727 h 9.3927 9.39271 V 62.35246 72.406626 h -9.39271 -9.3927 z m -2.24896,-1.731494 c -0.58208,-0.184089 -1.47505,-0.548719 -1.98437,-0.810287 -0.50933,-0.261569 -1.48608,-0.882988 -2.17057,-1.380931 -0.68449,-0.497944 -1.79801,-1.641645 -2.47448,-2.541556 -0.67648,-0.899914 -1.51623,-2.201132 -1.86612,-2.891602 l -0.63615,-1.255395 1.52314,-1.208966 c 0.83772,-0.66493 2.26133,-1.626722 3.16356,-2.137315 0.90224,-0.510593 2.23929,-1.205812 3.01055,-1.475891 0.77125,-0.270081 1.49515,-0.497665 2.01531,-0.691372 0.57323,-0.213471 0.29071,-0.04949 1.67272,-0.389779 -0.005,0.407578 -0.005,1.067409 -0.0116,1.58032 -1.47869,0.167034 -0.89914,0.09513 -1.47313,0.173802 -0.66851,0.09163 -1.94843,0.517758 -2.84427,0.946949 -0.91291,0.437372 -2.20604,1.368589 -2.94216,2.11872 l -1.31336,1.33837 0.8158,1.653247 c 0.44869,0.909288 1.35542,2.25303 2.01495,2.986098 0.65952,0.733068 1.77639,1.643036 2.48193,2.022152 0.70554,0.379116 1.98483,0.816795 2.46109,0.899488 0.65908,0.114438 0.48142,0.08927 0.81397,0.08973 -0.006,0.380119 0.009,1.427041 -0.01,1.686928 -0.20811,-0.03703 -0.58445,-0.136581 -0.77109,-0.205926 -0.23889,-0.08876 -0.89411,-0.322699 -1.47619,-0.506785 z m 0.52724,-3.427706 c -0.69233,-0.408057 -1.33997,-0.817645 -1.85752,-1.333593 -0.51697,-0.515369 -1.4766,-1.808228 -1.79184,-2.457071 l -0.57314,-1.179717 0.657,-0.52796 c 0.36136,-0.29038 1.40245,-1.018344 2.25921,-1.498531 0.84784,-0.475186 2.33541,-1.212398 3.0308,-1.115732 0.004,0.655585 0.0108,1.098558 0.0229,1.997924 -0.41808,-0.06661 -0.92711,-0.06281 -1.43639,0.08977 -0.58005,0.173786 -1.2235,0.540133 -1.71636,0.857094 l -0.7094,0.465336 0.63919,1.220835 c 0.34779,0.664276 1.06236,1.441987 1.43793,1.760357 0.38658,0.3277 1.49627,0.869172 1.74693,1.019715 0.0637,0.03825 0.0404,0.605165 0.0406,0.941718 l 0.001,0.791837 z m 1.72172,-3.34594 c 3e-5,-1.346858 0.0208,-2.406351 0.0262,-2.7725 0.32362,0.14532 0.47628,0.215146 0.59927,0.27654 0.26801,0.133779 0.49111,0.232961 0.89238,0.531342 0.26378,0.196149 0.52242,0.435647 1.03404,1.03252 0.41548,0.657654 0.81496,1.190612 0.88772,1.184352 0.0728,-0.0063 0.7276,-0.550114 1.45521,-1.208561 l 1.32291,-1.197176 -1.04127,-0.911961 c -0.5727,-0.501578 -1.63611,-1.088606 -2.36313,-1.304506 -0.72702,-0.215903 -1.65743,-0.39255 -2.06758,-0.39255 -0.33797,0 -0.48211,-0.03981 -0.74473,0.0033 2.7e-4,-0.256788 -0.001,-0.474707 -0.001,-0.831106 V 56.46346 l 1.38907,0.174519 c 0.76398,0.09598 2.10343,0.522631 2.97656,0.948102 0.87312,0.425469 2.17563,1.293654 2.89445,1.929297 l 1.30696,1.155713 -0.84546,1.052066 c -0.465,0.578635 -1.42056,1.490643 -2.12347,2.026684 -0.7029,0.536041 -1.71042,1.155295 -2.23893,1.376122 -0.52851,0.220826 -1.50054,0.401502 -2.16005,0.401502 h -1.19913 z"
       id="path4529"
       sodipodi:nodetypes="ccsssssscsssscscsssscssssccccccccccssssscssssccssscssssccssssscsssccscsssscssscsscscssscscssscsssscss" />
    <path
       style="fill:#040404;stroke-width:0.264583"
       d="m 126.15399,93.194018 c -0.5579,-0.438843 -0.70834,-0.942229 -0.70834,-1.842773 0,-0.84765 0.14264,-1.295132 0.62393,-1.747289 0.42662,-0.400781 1.00409,-0.463505 1.36822,-0.385014 0.29771,0.06418 0.53404,0.249222 0.71052,0.461867 0.17647,0.212646 0.19036,0.34022 0.21991,0.515514 -0.0924,0.0042 -0.32804,0.0033 -0.46528,0.0044 -0.0696,-0.14283 -0.1233,-0.31293 -0.30372,-0.412392 -0.38946,-0.214712 -0.63725,-0.123378 -0.97666,0.05851 -0.34879,0.186912 -0.62934,0.58734 -0.62934,1.50373 0,0.91639 0.21319,1.250667 0.54788,1.461786 0.34234,0.21594 0.59532,0.312105 0.98536,0.06851 0.19189,-0.119838 0.27202,-0.264102 0.34594,-0.359539 0.0776,0.01151 0.27083,0.0068 0.49387,0.01101 -0.0456,0.138562 -0.10262,0.230174 -0.1637,0.318902 -0.0588,0.08543 -0.10765,0.155888 -0.24874,0.282832 -0.3324,0.299077 -0.67878,0.363461 -0.96924,0.363379 -0.10977,-3.2e-5 -0.44718,-0.0019 -0.83061,-0.303501 z m 3.66364,0.0295 c -0.2858,-0.250073 -0.40835,-0.522946 -0.55003,-1.00861 -0.10221,-0.350364 -0.11312,-0.779373 -0.11131,-1.397807 0.002,-0.803807 0.003,-1.285957 0.008,-1.623303 0.10775,-0.0013 0.56799,-0.0075 0.64123,-0.0075 -5.6e-4,0.19486 -0.0157,1.006224 -0.0222,1.605177 -0.008,0.714065 -0.0871,1.690732 0.54343,1.990047 0.29245,0.138835 0.62548,0.132837 0.90209,-0.01323 0.59874,-0.316188 0.50863,-1.22718 0.52273,-1.923754 0.0122,-0.600815 -9e-4,-1.361223 0.009,-1.658995 0.16647,0.0076 0.4882,0.01442 0.58529,0.0088 -0.003,0.292713 0.006,0.609592 0.006,1.489331 0,1.345486 -0.008,1.861566 -0.56737,2.513341 -0.2218,0.258466 -0.62348,0.360611 -0.95098,0.373692 -0.38976,-0.0419 -0.76197,-0.131569 -1.01709,-0.34716 z m 3.82441,-1.897822 c 0,0 0.01,-1.63971 0.01,-2.10703 0.42133,-2.12e-4 0.99241,0.02021 0.99241,0.02021 1.01911,0.0062 1.20134,0.275989 1.42291,0.53766 0.29193,0.344778 0.48523,0.800983 0.48523,1.549143 0,0.74816 -0.12986,1.412671 -0.43476,1.794656 -0.29539,0.248758 -0.37618,0.326773 -0.53033,0.411308 -0.14169,0.0777 -0.32119,0.13739 -0.42328,0.135575 -0.27151,-5.29e-4 -1.52205,-0.02336 -1.52205,-0.02336 z m 1.97445,1.493489 c 0.22887,-0.283255 0.42025,-0.611961 0.42025,-1.500146 0,-0.682929 -0.25587,-1.123 -0.44814,-1.277985 -0.19581,-0.157845 -0.37313,-0.224107 -0.78059,-0.251703 -0.30007,-0.02032 -0.39208,-0.01773 -0.6114,-0.01923 6.4e-4,0.263064 -0.007,0.514868 -0.007,1.523875 0,1.166974 -0.006,1.405634 0.003,1.727462 0.33602,0.01124 0.55217,0.0033 0.7291,0.0033 0.38826,-0.02186 0.43226,-0.01974 0.69474,-0.205521 z m 1.6121,0.853365 c 0.38234,-1.209746 1.40651,-4.278981 1.47966,-4.497506 0.20595,0.0036 0.40854,0.0024 0.56831,0.0019 0.51647,1.598835 0.92328,2.841326 1.42571,4.495443 -0.22263,0.004 -0.37005,0.01484 -0.506,0.01193 -0.0519,-0.196969 -0.284,-0.806714 -0.3914,-1.153427 -0.37898,-1.98e-4 -1.45628,0.0043 -1.62749,0.0048 -0.0916,0.284911 -0.25148,0.810934 -0.34268,1.139245 -0.15861,0.004 -0.34071,0.0038 -0.60611,-0.0024 z m 1.77279,-3.773254 c -0.2064,0.600742 -0.48176,1.531887 -0.65106,2.085779 0.5323,-0.0032 0.81864,-0.0084 1.34983,0.0021 -0.12846,-0.445572 -0.47665,-1.467824 -0.69877,-2.087862 z"
       id="path4515"
       sodipodi:nodetypes="sssssccsssssccssssscssccssssccsaccscssccscsscssscsccccccccccccccccccc" />
    <path
       style="fill:#000000;stroke-width:0.264583"
       d="m 113.27481,79.912565 v -3.87114 l 4.87974,0.0078 c 0.70861,0.0011 0.93491,0.209751 1.43887,0.539959 0.38199,0.250291 0.69793,0.906788 0.83695,1.272453 0.13903,0.365664 0.25278,1.847717 0.25278,3.293454 v 2.628608 h -0.92604 -0.92605 v -2.462971 c 0,-1.55285 -0.12221,-2.630046 -0.33073,-2.915108 -0.20337,-0.278032 -0.80751,-0.433313 -1.66754,-0.418997 l -1.45335,0.02418 0.0121,2.693249 v 3.079562 h -1.05833 -1.05834 z m 10.54518,3.862607 c -0.0677,-0.116295 -0.65178,-1.954406 -1.25192,-3.868486 -0.60015,-1.914078 -1.11252,-3.812821 -1.11252,-3.908436 0.69398,0.0011 1.35577,0.01921 2.08209,0.0205 l 0.70343,3.199808 c 0.36409,1.656193 0.88333,2.975972 0.97575,2.976562 0.0924,5.29e-4 0.5823,-1.362646 1.0453,-3.041634 l 0.87675,-3.179392 c 0.64745,0.0019 1.35488,-0.0016 1.8766,0.02344 -0.10926,0.336161 -0.17782,0.52129 -0.266,0.922793 -0.0978,0.445256 -0.62211,2.142291 -1.16777,3.770312 l -1.04759,3.1256 c -0.89624,-1.72e-4 -1.66877,-0.02897 -2.71412,-0.04109 z m 6.38816,-3.827926 v -3.836458 h 0.92604 0.92604 v 3.836458 3.836458 h -0.92604 -0.92604 z m 3.43958,-0.0036 v -3.912131 c 0,0 3.34869,-0.09024 4.25025,0.104714 0.90156,0.194958 0.93661,0.286192 1.25945,0.519972 0.33288,0.241049 0.7548,0.614516 0.98275,0.962411 0.22795,0.347898 0.48102,1.19457 0.56238,1.881495 0.0977,0.824619 0.0105,1.577684 -0.25636,2.216518 -0.22235,0.532161 -0.71668,1.172262 -1.09851,1.422447 -0.65728,0.565719 -1.34502,0.687467 -2.03384,0.683527 l -3.66612,0.03317 z m 4.7433,1.555385 c 0.31131,-0.395764 0.54837,-1.087231 0.54837,-1.59952 0,-0.605314 -0.2138,-1.116187 -0.64944,-1.551818 -0.47547,-0.475478 -0.93613,-0.649433 -1.71979,-0.649433 h -1.07036 v 2.248958 2.248959 h 1.17142 c 0.95037,0 1.27491,-0.131554 1.7198,-0.697141 z m 3.72337,-1.551813 V 76.11076 h 0.92604 0.92604 v 3.836458 3.836458 h -0.92604 -0.92604 z m 3.46667,2.447396 c 0.30169,-0.763984 0.97267,-2.495992 1.49107,-3.848907 l 0.93107,-2.55574 c 0.8509,7.94e-4 1.70749,-0.0076 2.56571,0.01093 l 1.36157,3.54946 c 0.69963,1.823855 1.3627,3.515651 1.44571,3.770312 0.0528,0.161938 0.14073,0.313722 0.1456,0.459161 -0.16811,-0.0016 -0.49407,0.0039 -0.9523,0.0039 -0.46204,0 -0.70555,0.0081 -0.95295,0.0033 -0.0981,-0.234141 -0.17617,-0.49524 -0.28138,-0.797042 -0.0974,-0.279424 -0.1428,-0.510511 -0.29799,-0.813191 -0.2657,7.1e-5 -0.65988,0.01945 -1.81868,0.01945 -1.07626,0 -1.44317,-0.01566 -1.81471,-0.0044 -0.11169,0.291677 -0.16028,0.412811 -0.2701,0.727845 -0.23401,0.671283 -0.18478,0.533641 -0.29802,0.862116 l -1.80314,0.0019 z m 3.70577,-5.013346 c -0.56188,1.307158 -0.93445,2.410812 -1.40668,3.593256 1.12635,-0.02524 1.6722,-0.01598 2.85583,-0.0349 -0.39392,-1.029276 -1.03716,-2.62986 -1.44915,-3.558356 z"
       id="path4513"
       sodipodi:nodetypes="ccsssscccssscccccccsccscsccssccccccccccccsszsssscccscsscccssscscccccccsscccsscscscscscsscccc" />
  </g>
</svg>
