<?xml version="1.0" encoding="UTF-8" standalone="no"?>
<!-- Created with Inkscape (http://www.inkscape.org/) -->

<svg
   width="95mm"
   height="95mm"
   viewBox="0 0 95 95"
   version="1.1"
   id="svg583"
   inkscape:version="1.2.2 (b0a8486541, 2022-12-01)"
   sodipodi:docname="logo.svg"
   xmlns:inkscape="http://www.inkscape.org/namespaces/inkscape"
   xmlns:sodipodi="http://sodipodi.sourceforge.net/DTD/sodipodi-0.dtd"
   xmlns:xlink="http://www.w3.org/1999/xlink"
   xmlns="http://www.w3.org/2000/svg"
   xmlns:svg="http://www.w3.org/2000/svg">
  <sodipodi:namedview
     id="namedview585"
     pagecolor="#ffffff"
     bordercolor="#000000"
     borderopacity="0.25"
     inkscape:showpageshadow="2"
     inkscape:pageopacity="0.0"
     inkscape:pagecheckerboard="0"
     inkscape:deskcolor="#d1d1d1"
     inkscape:document-units="mm"
     showgrid="false"
     inkscape:zoom="1.6819304"
     inkscape:cx="224.1472"
     inkscape:cy="223.25537"
     inkscape:window-width="1920"
     inkscape:window-height="1058"
     inkscape:window-x="1920"
     inkscape:window-y="22"
     inkscape:window-maximized="1"
     inkscape:current-layer="svg583" />
  <defs
     id="defs580">
    <linearGradient
       inkscape:collect="always"
       id="linearGradient19378">
      <stop
         style="stop-color:#056aff;stop-opacity:1;"
         offset="0"
         id="stop19374" />
      <stop
         style="stop-color:#05fef8;stop-opacity:1;"
         offset="1"
         id="stop19376" />
    </linearGradient>
    <inkscape:path-effect
       effect="bspline"
       id="path-effect1802"
       is_visible="true"
       lpeversion="1"
       weight="33.333333"
       steps="2"
       helper_size="0"
       apply_no_weight="true"
       apply_with_weight="true"
       only_selected="false" />
    <linearGradient
       inkscape:collect="always"
       xlink:href="#linearGradient19378"
       id="linearGradient19380"
       x1="147.65962"
       y1="75.53392"
       x2="53.171841"
       y2="170.25826"
       gradientUnits="userSpaceOnUse"
       gradientTransform="matrix(0.99963576,0,0,0.99709619,0.00505663,0.32527166)" />
  </defs>
  <g
     inkscape:groupmode="layer"
     id="layer4"
     inkscape:label="bg">
    <rect
       style="fill:url(#linearGradient19380);fill-opacity:1;stroke:#c4c4c4;stroke-width:0;stroke-dasharray:none;stroke-opacity:1"
       id="rect17085"
       width="95"
       height="95"
       x="53.044178"
       y="75.338661"
       inkscape:label="rect17085"
       transform="translate(-53.044177,-75.338657)" />
  </g>
  <g
     inkscape:groupmode="layer"
     id="layer3"
     inkscape:label="path"
     transform="translate(-53.044176,-75.338658)">
    <path
       style="fill:#ababab;fill-opacity:0;stroke:#bff2fd;stroke-width:0.5;stroke-dasharray:none;stroke-opacity:1"
       d="m 139.20201,146.68688 c -4.43907,-0.93616 -8.87828,-1.87235 -13.26177,-2.40448 -4.38349,-0.53214 -8.7109,-0.66014 -12.72579,-0.50791 -4.01488,0.15222 -7.71672,0.58468 -11.35378,1.73961 -3.637065,1.15493 -7.208862,3.03225 -10.525641,5.17868 -3.316779,2.14643 -6.378283,4.5618 -9.896869,6.79455 -3.518586,2.23275 -7.494013,4.28273 -11.153455,4.08153 -3.659442,-0.20119 -7.00265,-2.65381 -7.949909,-5.597 -0.947259,-2.94319 0.501986,-6.3767 1.951208,-9.81016"
       id="path1800"
       inkscape:path-effect="#path-effect1802"
       inkscape:original-d="m 139.20201,146.68688 c -4.43911,-0.93596 -8.87832,-1.87215 -13.31787,-2.80862 -4.3274,-0.12774 -8.65481,-0.25574 -12.98274,-0.38401 -3.7018,0.43275 -7.40364,0.86521 -11.10596,1.29743 -3.57167,1.87766 -7.143465,3.75499 -10.7156,5.63209 -3.061361,2.41573 -6.122866,4.8311 -9.184698,7.24626 -3.975403,2.05037 -7.950829,4.10035 -11.926761,6.15018 -3.34315,-2.4525 -6.686359,-4.90511 -10.030044,-7.35814 1.449518,-3.43327 4.347667,-10.30037 4.347667,-10.30037"
       sodipodi:nodetypes="ccccccccc" />
  </g>
  <g
     inkscape:label="Layer 1"
     inkscape:groupmode="layer"
     id="layer1"
     transform="translate(-53.044176,-75.338658)">
    <path
       d="M 129.61702,148.35525"
       style="fill:#ba00fe;stroke-width:0.0846667"
       id="path631" />
    <path
       d="M 102.97294,127.58639"
       style="fill:#ba00fe;stroke-width:0.0846667"
       id="path631-3" />
    <path
       style="fill:#f7fe00;stroke-width:0.0846667"
       d="m 112.87841,147.65282 c -0.71119,-0.1623 -0.92454,-0.25575 -1.49078,-0.65294 -0.60234,-0.42252 -1.18901,-1.25187 -1.3981,-1.97642 -0.44672,-1.54804 0.16105,-3.25214 1.47606,-4.13862 1.34109,-0.90407 2.92388,-0.90407 4.26497,0 1.31501,0.88648 1.92278,2.59058 1.47606,4.13862 -0.52559,1.82132 -2.53091,3.03954 -4.32821,2.62936 z"
       id="path396" />
    <path
       style="fill:#ba00fe;stroke-width:0.0846667"
       d="m 63.296975,150.10774 c -1.831063,-0.50496 -3.031165,-2.36748 -2.714676,-4.2131 0.143782,-0.83848 0.466396,-1.46229 1.066699,-2.06259 0.892604,-0.89261 2.062753,-1.27312 3.258157,-1.05949 2.563127,0.45806 3.861744,3.09004 2.70822,5.4889 -0.248508,0.51679 -1.020167,1.28845 -1.536965,1.53696 -0.878666,0.42252 -1.942102,0.54078 -2.781435,0.30932 z"
       id="path330" />
    <path
       style="fill:#00fdb2;stroke-width:0.0846667"
       d="m 81.509412,161.28742 c -1.261348,-0.28402 -2.220652,-1.06925 -2.714886,-2.22225 -0.958387,-2.23582 0.459271,-4.77153 2.905386,-5.19675 2.442144,-0.42452 4.724064,1.8574 4.299537,4.29954 -0.282056,1.62256 -1.491493,2.85524 -3.08742,3.14674 -0.610402,0.11149 -0.802934,0.10775 -1.402617,-0.0273 z"
       id="path322" />
    <path
       style="fill:#fe9d00;stroke-width:0.0846667"
       d="m 125.32441,147.56816 c -0.71119,-0.16231 -0.92454,-0.25576 -1.49078,-0.65295 -0.60234,-0.42252 -1.18901,-1.25187 -1.3981,-1.97642 -0.44672,-1.54804 0.16105,-3.25213 1.47606,-4.13862 1.34109,-0.90407 2.92388,-0.90407 4.26497,0 1.31501,0.88649 1.92278,2.59058 1.47606,4.13862 -0.52559,1.82133 -2.53091,3.03955 -4.32821,2.62937 z"
       id="path308" />
    <path
       style="fill:#8efe00;stroke-width:0.0846667"
       d="m 101.61774,149.34616 c -0.71118,-0.16231 -0.92454,-0.25576 -1.49077,-0.65295 -0.602341,-0.42252 -1.189015,-1.25187 -1.398102,-1.97642 -0.446725,-1.54804 0.161049,-3.25213 1.476062,-4.13862 1.34108,-0.90407 2.92388,-0.90407 4.26496,0 1.31501,0.88649 1.92279,2.59058 1.47606,4.13862 -0.52559,1.82133 -2.53091,3.03955 -4.32821,2.62937 z"
       id="path298" />
    <path
       style="fill:#0061fe;stroke-width:0.0846667"
       d="m 70.883745,164.24749 c -0.711183,-0.1623 -0.924542,-0.25576 -1.490776,-0.65295 -0.602339,-0.42251 -1.189014,-1.25186 -1.398101,-1.97641 -0.690796,-2.39383 1.123153,-4.81348 3.608544,-4.81348 1.224057,0 2.406223,0.62275 3.08029,1.62266 0.902372,1.33857 0.903918,2.92399 0.0041,4.25889 -0.823004,1.22102 -2.421111,1.87692 -3.804108,1.56129 z"
       id="path280"
       sodipodi:nodetypes="ssssssss" />
    <path
       style="fill:#3400fe;stroke-width:0.0846667"
       d="m 60.893079,158.91349 c -0.711183,-0.16231 -0.924543,-0.25576 -1.490777,-0.65295 -0.602338,-0.42251 -1.189014,-1.25187 -1.3981,-1.97641 -0.690797,-2.39383 1.123153,-4.81348 3.608544,-4.81348 2.057226,0 3.755139,1.69792 3.755139,3.75514 0,2.33791 -2.253146,4.19473 -4.474806,3.6877 z"
       id="path274" />
    <path
       style="fill:#00fe2c;stroke-width:0.0846667"
       d="m 91.203745,153.83349 c -0.711184,-0.16231 -0.924541,-0.25576 -1.490776,-0.65295 -0.60234,-0.42251 -1.189014,-1.25187 -1.398101,-1.97641 -0.690798,-2.39383 1.123154,-4.81348 3.608544,-4.81348 1.224058,0 2.406224,0.62275 3.08029,1.62266 0.902372,1.33857 0.903917,2.92398 0.0042,4.25889 -0.823003,1.22102 -2.42111,1.87692 -3.804108,1.56129 z"
       id="path270" />
    <path
       style="fill:#ff0000;stroke-width:0.0846667"
       d="m 138.09399,149.93934 c -0.71119,-0.16231 -0.92454,-0.25576 -1.49078,-0.65295 -0.60234,-0.42252 -1.18901,-1.25187 -1.3981,-1.97642 -0.44672,-1.54804 0.16105,-3.25213 1.47606,-4.13862 1.34109,-0.90407 2.92388,-0.90407 4.26497,0 1.31501,0.88649 1.92278,2.59058 1.47606,4.13862 -0.52559,1.82133 -2.53091,3.03955 -4.32821,2.62937 z"
       id="path308-6" />
  </g>
  <g
     inkscape:groupmode="layer"
     id="layer2"
     inkscape:label="opt"
     transform="translate(-53.044176,-75.338658)">
    <path
       style="fill:#000000;fill-opacity:1;stroke-width:0.0846667"
       d="m 85.769091,151.0734 c -0.005,-0.20955 0.0422,-1.16205 0.10568,-2.11667 0.0635,-0.95461 0.11567,-1.79281 0.11598,-1.86266 0.009,-2.14442 0.73243,-5.46129 1.7993,-8.255 0.1517,-0.39724 0.84463,-2.15746 1.18322,-3.00567 0.93204,-2.33489 3.18497,-6.78905 5.20319,-10.287 0.26868,-0.46567 0.56452,-0.98002 0.65743,-1.143 0.7715,-1.35336 3.09588,-5.08 3.1685,-5.08 0.0183,0 -0.23614,0.50482 -0.5654,1.12183 -0.53441,1.00144 -2.77776,5.5039 -3.51192,7.0485 -0.72401,1.52326 -2.19281,4.85948 -2.79564,6.35 -0.66578,1.64617 -0.79509,1.97262 -1.05645,2.667 -0.14898,0.39582 -0.35834,0.94827 -0.46525,1.22767 -0.33618,0.87859 -1.01943,2.82336 -1.33855,3.81 -0.57439,1.77583 -1.09304,3.53019 -1.28908,4.36033 -0.0165,0.0699 -0.16557,0.67945 -0.33129,1.35467 -0.42843,1.74562 -0.70406,3.05274 -0.83912,3.97933 -0.017,0.11642 -0.0352,0.0402 -0.0406,-0.16933 z m -18.22308,-9.16517 c 0.27826,-0.38417 0.64336,-0.889 0.81134,-1.12183 0.3016,-0.41804 1.41075,-1.94789 2.04404,-2.81934 4.496345,-6.14541 9.886623,-13.6465 13.70338,-18.25713 1.83608,-2.21792 5.31399,-6.05045 7.8105,-8.60686 1.75771,-1.79989 1.94452,-1.73797 -2.77283,-0.91908 -1.602771,0.2559 -3.340565,0.57388 -4.74133,0.79951 -5.00861,0.79826 -4.85222,0.75331 -5.08494,1.46165 -0.153,0.46571 -0.37378,0.99734 -0.45621,1.09857 -0.0815,0.10009 -4.09998,0.65835 -5.3895,0.74873 l -0.81298,0.057 -0.06,-1.10325 c -0.033,-0.60678 -0.0342,-1.33133 -0.003,-1.61011 l 0.0573,-0.50686 0.34533,-0.0552 c 0.77747,-0.12432 4.01237,0.019 5.6523,0.2505 0.8762,0.12367 0.91907,0.12175 2.032,-0.0909 0.62531,-0.11948 1.72747,-0.32767 2.44925,-0.46264 2.230886,-0.23963 4.558553,-1.05112 6.731,-1.3025 0.49729,-0.0561 2.54655,-0.46037 3.21734,-0.63471 0.18626,-0.0484 0.56487,-0.13157 0.84134,-0.1848 0.39333,-0.0757 0.57027,-0.16381 0.81347,-0.40498 2.75976,-2.73677 5.840249,-5.56857 8.600089,-7.90579 4.32448,-3.603366 8.99362,-7.175071 13.07672,-10.375166 3.4115,-2.489766 6.50151,-5.279673 9.73,-7.536935 -1.49258,2.111318 -2.31659,3.27494 -3.79699,5.316687 -4.92824,6.847035 -9.77527,13.645444 -15.1253,20.067554 -0.43317,0.52205 -2.44681,2.72371 -3.59833,3.9343 -0.48895,0.51404 -1.31763,1.40099 -1.8415,1.97101 l -0.9525,1.0364 -5.3e-4,0.4442 c -5.3e-4,0.46775 -0.27281,2.18665 -0.41742,2.6357 -0.089,0.27641 -0.36868,1.78922 -0.557469,3.0155 -0.16952,1.10108 -1.71703,9.80417 -1.77676,9.99236 -0.0289,0.0911 0.008,0.53758 0.0831,0.99215 0.28164,1.71615 0.46811,5.97618 0.27027,6.17445 -0.0814,0.0815 -2.49688,0.12611 -2.92558,0.054 l -0.28678,-0.0482 0.0539,-0.72951 c 0.101,-1.36739 0.33,-3.30999 0.57285,-4.85941 0.10083,-0.64333 0.18247,-0.71523 1.17451,-1.03437 0.74171,-0.23862 0.6192,0.13044 1.19461,-3.59874 0.471985,-2.56905 0.75596,-5.49391 1.17499,-7.747 0.16964,-0.86775 0.33863,-2.12632 0.32401,-2.413 -0.008,-0.16299 0.0374,-0.62859 0.10157,-1.03468 0.16578,-1.04898 0.195099,-1.0655 -2.01547,1.13618 -2.22797,2.21902 -2.9273,2.90138 -3.75103,3.65999 -2.21074,2.03598 -3.6595,3.35309 -3.97878,3.61722 -1.39724,1.20563 -3.000987,2.42661 -4.30749,3.41629 -3.905842,2.98794 -7.847708,6.02279 -11.64475,8.88356 -0.0931,0.0695 -0.28363,0.21683 -0.42333,0.32752 -0.32474,0.2573 -1.73357,1.32751 -3.09033,2.34755 -0.58209,0.43763 -1.27527,0.96871 -1.54042,1.18019 -0.77171,0.61554 -1.89583,1.44284 -1.96047,1.44284 -0.0327,0 0.16824,-0.31432 0.44649,-0.6985 z m 34.225079,-8.78416 c -0.005,-0.20955 0.0422,-1.16205 0.10568,-2.11667 0.0635,-0.95462 0.11567,-1.79282 0.11598,-1.86267 0.009,-2.14442 0.73243,-5.46128 1.7993,-8.255 0.1517,-0.39724 0.84463,-2.15745 1.18322,-3.00566 0.93204,-2.33489 3.18497,-6.78906 5.20319,-10.287 0.26868,-0.46567 0.56452,-0.98001 0.65743,-1.14299 0.7715,-1.35336 3.09588,-5.08001 3.1685,-5.08001 0.0183,0 -0.23614,0.50482 -0.5654,1.12183 -0.51258,0.96055 -2.71626,5.38267 -3.47027,6.96383 -0.72066,1.5112 -2.23544,4.94656 -2.83729,6.43467 -0.66578,1.64616 -0.79509,1.97261 -1.05645,2.667 -0.14898,0.39582 -0.35834,0.94827 -0.46525,1.22767 -0.18423,0.48149 -0.49793,1.35533 -0.92702,2.58233 -0.57358,1.6402 -1.46864,4.58261 -1.69982,5.588 -0.0161,0.0699 -0.16484,0.67945 -0.33062,1.35467 -0.43466,1.77034 -0.70546,3.05232 -0.84058,3.97933 -0.017,0.11642 -0.0352,0.0402 -0.0406,-0.16933 z M 58.3079,125.95423 c 0.06112,-0.0245 0.134143,-0.0215 0.162277,0.007 0.02814,0.0281 -0.02187,0.0481 -0.111125,0.0445 -0.09863,-0.004 -0.118694,-0.0241 -0.05115,-0.0512 z m 1.751541,-0.40047 c 8.57091,-2.18481 20.33527,-7.69864 30.88217,-14.47415 0.81206,-0.52168 0.55214,-0.28647 -0.762,0.68956 -9.11269,6.7681 -17.65354,11.49421 -23.59299,13.05524 -0.78475,0.20625 -7.265342,1.11508 -7.841033,1.09962 -0.06901,-0.002 0.52222,-0.16848 1.313853,-0.37027 z m 51.152479,-6.35736 c 0.0467,-1.12309 0.0704,-1.56655 0.15158,-2.83633 0.0253,-0.39582 0.0646,-1.06257 0.0874,-1.48167 0.0878,-1.61531 0.41756,-3.1076 1.30956,-5.92667 0.31075,-0.98207 0.5287,-1.55988 1.61279,-4.27566 0.55931,-1.40116 2.65298,-5.72952 3.58348,-7.408334 0.50848,-0.983882 1.11754,-1.965236 1.62284,-2.878667 0.86103,-1.57056 3.71903,-6.223 3.8228,-6.223 -0.77731,1.564599 -1.69192,3.317383 -2.436,4.826 -1.62448,3.297187 -1.7061,3.468131 -2.52662,5.291667 -1.55216,3.449554 -1.81384,4.082314 -3.43146,8.297344 -0.18428,0.48016 -0.49361,1.34132 -0.9276,2.58232 -0.57358,1.6402 -1.46864,4.58261 -1.69982,5.588 -0.0161,0.0699 -0.16484,0.67945 -0.33062,1.35467 -0.43539,1.77332 -0.57169,2.4137 -0.84695,3.97933 -0.0205,0.11642 -0.0166,-0.28363 0.009,-0.889 z m -34.219149,-9.55998 c 8.57091,-2.1848 20.33527,-7.69863 30.882169,-14.474137 0.81206,-0.521683 0.55214,-0.286475 -0.762,0.689555 -9.112689,6.768102 -17.653539,11.494202 -23.592989,13.055242 -0.78474,0.20625 -7.26534,1.11508 -7.84103,1.09962 -0.069,-0.002 0.52222,-0.16848 1.31385,-0.37028 z m 11.43,-9.39799 c 8.57091,-2.184807 20.335269,-7.698638 30.882169,-14.474147 0.81206,-0.521683 0.55214,-0.286475 -0.762,0.689555 -9.11269,6.768105 -17.65354,11.494207 -23.592989,13.055244 -0.78474,0.206252 -7.26534,1.115078 -7.84103,1.099618 -0.069,-0.002 0.52222,-0.16848 1.31385,-0.37027 z"
       id="path264"
       sodipodi:nodetypes="cscssssssssssssssccsccsccssscsccsssccscccccccsscssssccccssscccssscccsssscccscsssssssssssssscccscccssscccscssccccsssssccccsssccsssscs" />
  </g>
</svg>
