<?xml version="1.0" encoding="UTF-8" standalone="no"?>
<!-- Created with Inkscape (http://www.inkscape.org/) -->

<svg
   width="240mm"
   height="80mm"
   viewBox="0 0 240 79.999999"
   version="1.1"
   id="svg121290"
   xml:space="preserve"
   xmlns:inkscape="http://www.inkscape.org/namespaces/inkscape"
   xmlns:sodipodi="http://sodipodi.sourceforge.net/DTD/sodipodi-0.dtd"
   xmlns="http://www.w3.org/2000/svg"
   xmlns:svg="http://www.w3.org/2000/svg"><sodipodi:namedview
     id="namedview121292"
     pagecolor="#ffffff"
     bordercolor="#000000"
     borderopacity="0.25"
     inkscape:showpageshadow="2"
     inkscape:pageopacity="0.0"
     inkscape:pagecheckerboard="0"
     inkscape:deskcolor="#d1d1d1"
     inkscape:document-units="mm"
     showgrid="false" /><defs
     id="defs121287" /><g
     inkscape:label="Layer 1"
     inkscape:groupmode="layer"
     id="layer1"
     transform="translate(-6.9194569,-12.257213)"><path
       d="m 61.225466,49.445723 c -0.142081,-0.53631 -0.372268,-1.045104 -0.681037,-1.506008 0.06615,-0.242888 0.116417,-0.489479 0.150283,-0.738452 0.219075,-1.58115 -0.328877,-3.028686 -1.362075,-4.148932 -0.559594,-0.611716 -1.159404,-1.01547 -1.794669,-1.263385 0.416984,-1.784085 0.628121,-3.609975 0.62918,-5.442214 0,-0.836613 -0.04736,-1.656292 -0.126736,-2.4638 -0.04154,-0.403225 -0.09155,-0.805657 -0.150019,-1.206765 -0.182033,-1.183481 -0.451908,-2.351775 -0.807508,-3.495146 -0.233098,-0.751231 -0.502708,-1.490662 -0.807773,-2.215621 -0.457464,-1.073573 -0.991658,-2.112909 -1.598348,-3.109912 -0.398198,-0.663152 -0.831585,-1.304475 -1.298575,-1.92114 -0.228864,-0.311414 -0.467254,-0.615473 -0.715433,-0.911754 -0.735012,-0.893392 -1.533525,-1.732306 -2.389981,-2.510102 -0.284163,-0.261461 -0.576527,-0.5139 -0.876829,-0.756973 -0.29554,-0.246539 -0.597694,-0.485193 -0.905934,-0.715698 -0.620448,-0.46175 -1.261798,-0.894979 -1.921668,-1.29831 -3.646223,-2.214563 -7.922154,-3.484298 -12.492302,-3.484298 -13.306134,0 -24.0908149,10.784946 -24.0908149,24.090577 -3.44e-4,1.855258 0.2146029,3.704166 0.6405559,5.509683 -0.5715,0.248179 -1.1194519,0.634736 -1.6271869,1.194329 -1.032934,1.119452 -1.58115,2.561961 -1.361811,4.142846 0.03307,0.251354 0.08334,0.500063 0.150019,0.744538 -0.308584,0.461168 -0.538692,0.970227 -0.681038,1.506537 -0.3175,1.206765 -0.212989,2.294996 0.1905,3.24829 -0.438414,1.246452 -0.328877,2.573602 0.242359,3.72745 0.415396,0.842697 1.009914,1.494366 1.742546,2.077243 0.8712719,0.692415 1.9618849,1.281113 3.2776579,1.845469 1.569508,0.669396 3.485092,1.29831 4.356365,1.529027 2.250545,0.582877 4.408487,0.952235 6.595771,0.969963 3.115733,0.0291 5.799137,-0.703792 7.720541,-2.578894 0.943769,0.115623 1.893623,0.173566 2.844536,0.173302 1.004623,-0.0021 2.008187,-0.06562 3.005137,-0.189442 1.916642,1.887009 4.610365,2.626519 7.73774,2.596621 2.186781,-0.0172 4.344722,-0.386556 6.589447,-0.970227 0.877094,-0.230717 2.792148,-0.859631 4.36245,-1.528763 1.315773,-0.565679 2.406121,-1.154112 3.28348,-1.845733 0.727075,-0.582612 1.321064,-1.234546 1.736725,-2.077244 0.577056,-1.153847 0.681037,-2.480997 0.248179,-3.72745 0.399785,-0.953293 0.503502,-2.043906 0.186266,-3.249612 z m -2.232818,3.167592 c 0.442118,0.838993 0.470429,1.786995 0.08017,2.66991 -0.591608,1.338263 -2.061104,2.392098 -4.915164,3.523721 -1.774561,0.704056 -3.399896,1.153848 -3.414183,1.158081 -2.347384,0.608806 -4.4704,0.91784 -6.308196,0.91784 -3.043238,0 -5.307542,-0.839523 -6.7437,-2.497932 -2.428611,0.413544 -4.90855,0.427567 -7.341658,0.04154 -1.437746,1.630892 -3.689615,2.456392 -6.707188,2.456392 -1.838034,0 -3.960786,-0.309034 -6.308169,-0.91784 -0.01455,-0.0042 -1.638829,-0.454025 -3.414183,-1.158081 -2.854061,-1.131623 -4.3238209,-2.184929 -4.9151649,-3.523721 -0.39026,-0.882915 -0.36195,-1.830917 0.08017,-2.66991 0.04101,-0.07779 0.08467,-0.153988 0.131498,-0.227277 -0.265007,-0.397934 -0.442728,-0.847725 -0.521547,-1.319213 -0.07879,-0.471487 -0.05686,-0.954617 0.06435,-1.417108 0.175683,-0.667279 0.538691,-1.222375 1.031346,-1.621102 -0.237226,-0.389996 -0.392933,-0.823913 -0.45773,-1.275821 -0.141816,-0.982663 0.18415,-1.964002 0.9181049,-2.763838 0.571235,-0.622564 1.379008,-0.9652 2.273564,-0.9652 h 0.02381 c -0.674343,-2.161381 -1.01629,-4.41272 -1.014147,-6.67676 0,-12.348633 10.011039,-22.359937 22.360969,-22.359937 12.350221,0 22.360995,10.01051 22.360995,22.359937 0.0016,2.270125 -0.342635,4.527285 -1.021027,6.693694 0.10795,-0.01058 0.213784,-0.01614 0.3175,-0.01614 0.894292,0 1.702329,0.342371 2.273565,0.964936 0.733425,0.799306 1.060185,1.781439 0.918104,2.763837 -0.06482,0.451908 -0.220398,0.88609 -0.457729,1.276085 0.492654,0.398463 0.855662,0.953559 1.031346,1.621103 0.120914,0.462491 0.142875,0.945356 0.06403,1.417108 -0.07885,0.471487 -0.256381,0.921014 -0.521229,1.319212 0.04683,0.0725 0.09102,0.148696 0.131498,0.226484 z"
       fill="#ffffff"
       id="path121534"
       style="stroke-width:0.264583" /><path
       d="m 58.86115,52.386831 c 0.264848,-0.398198 0.442383,-0.847725 0.521229,-1.319212 0.07885,-0.471752 0.05689,-0.954617 -0.06403,-1.417108 -0.175684,-0.66728 -0.538692,-1.222375 -1.031346,-1.621103 0.237067,-0.389995 0.392906,-0.823912 0.457729,-1.27582 0.141817,-0.982663 -0.18415,-1.964002 -0.918104,-2.763838 -0.571236,-0.622564 -1.379273,-0.9652 -2.273565,-0.9652 -0.103981,0 -0.20955,0.0053 -0.3175,0.01614 0.677598,-2.166409 1.021292,-4.423569 1.019175,-6.693429 0,-12.348395 -10.011039,-22.359938 -22.359937,-22.359938 -12.348898,0 -22.360995,10.010484 -22.360995,22.359938 -0.0021,2.264039 0.339804,4.515379 1.014148,6.67676 h -0.02381 c -0.894293,0 -1.702066,0.342635 -2.273301,0.9652 -0.7334249,0.799306 -1.0599209,1.781175 -0.9181039,2.763837 0.06474,0.451909 0.220451,0.885825 0.457729,1.275821 -0.492654,0.398727 -0.855663,0.953823 -1.031081,1.621367 -0.121126,0.462492 -0.142981,0.945621 -0.06408,1.417373 0.0789,0.471487 0.256725,0.921279 0.521811,1.319212 -0.04736,0.07329 -0.09075,0.14949 -0.131498,0.227277 -0.441854,0.838994 -0.470429,1.786996 -0.08017,2.669911 0.591344,1.337998 2.0611039,2.392362 4.9151649,3.523721 1.774561,0.704056 3.399896,1.153847 3.414184,1.158081 2.347383,0.608806 4.470135,0.918104 6.307931,0.918104 3.017837,0 5.269441,-0.8255 6.707452,-2.456656 2.433108,0.386027 4.913047,0.372004 7.341657,-0.04154 1.435894,1.658408 3.700463,2.498196 6.7437,2.498196 1.837796,0 3.960813,-0.309298 6.308196,-0.918104 0.01429,-0.0042 1.638829,-0.454025 3.414183,-1.158081 2.854061,-1.131359 4.323821,-2.185723 4.915165,-3.523721 0.39026,-0.882915 0.36195,-1.830917 -0.08017,-2.669911 -0.04048,-0.07858 -0.08493,-0.154516 -0.131763,-0.227277 z M 29.321215,55.87404 c -0.123825,0.216693 -0.256381,0.428095 -0.397669,0.633677 -0.37174,0.544248 -0.86069,0.959908 -1.427956,1.269206 -1.085056,0.591344 -2.457979,0.798248 -3.853127,0.798248 -2.20345,0 -4.462463,-0.515673 -5.728758,-0.844286 -0.06218,-0.01614 -7.761288,-2.19075 -6.786563,-4.041775 0.164042,-0.31115 0.434181,-0.435504 0.773906,-0.435504 1.372394,0 3.87141,2.043642 4.945618,2.043642 0.239713,0 0.40902,-0.102394 0.478076,-0.351367 0.457729,-1.641739 -6.95669,-2.331773 -6.332273,-4.708789 0.110331,-0.420688 0.409046,-0.591344 0.829469,-0.591344 1.814248,-2.65e-4 5.886714,3.19061 6.738408,3.19061 0.06535,0 0.112184,-0.01905 0.137584,-0.05927 l 0.01111,-0.01826 c 0.39952,-0.660135 0.170391,-1.140089 -2.568575,-2.817547 l -0.262996,-0.160073 c -3.013604,-1.824302 -5.129212,-2.921794 -3.925887,-4.231482 0.138377,-0.151341 0.334433,-0.218281 0.572822,-0.218281 0.28284,0 0.624946,0.09472 1.001713,0.253206 1.591733,0.671248 3.797829,2.5019 4.719373,3.300413 0.271727,0.236537 0.4318,0.381 0.4318,0.381 0,0 1.166812,1.213379 1.872456,1.213379 0.162454,0 0.300037,-0.06376 0.393435,-0.22225 0.500592,-0.843492 -4.646877,-4.743979 -4.937125,-6.353175 -0.196585,-1.090612 0.138113,-1.642798 0.757502,-1.642798 0.294217,0 0.653521,0.125148 1.050132,0.376767 1.230312,0.78105 3.605741,4.863042 4.475427,6.450806 0.29157,0.532342 0.789252,0.757238 1.23772,0.757238 0.889794,0 1.585384,-0.884502 0.08149,-2.008452 -2.260335,-1.691482 -1.467114,-4.455848 -0.388408,-4.625975 0.04604,-0.0071 0.0926,-0.01085 0.138906,-0.01111 0.981075,0 1.413934,1.690688 1.413934,1.690688 0,0 1.268147,3.185054 3.446991,5.362045 1.977231,1.976173 2.253192,3.598069 1.101461,5.620809 z m 7.045589,0.373062 -0.112977,0.01349 -0.192881,0.02222 c -0.101336,0.01032 -0.202671,0.02037 -0.304536,0.0299 l -0.09948,0.009 -0.09049,0.0077 -0.128853,0.01032 c -0.04736,0.0034 -0.09472,0.0071 -0.142081,0.01005 l -0.141816,0.0095 -0.03122,0.0019 -0.111654,0.0066 -0.04736,0.0024 -0.132291,0.0066 -0.153723,0.0063 -0.1397,0.0048 -0.09313,0.0026 h -0.0471 c -0.0291,0 -0.05794,0.0016 -0.08705,0.0019 h -0.0463 c -0.0291,0 -0.05794,0 -0.08705,0.0016 l -0.118269,0.0013 h -0.165628 c -0.129911,0 -0.259292,-0.0013 -0.388673,-0.0037 l -0.104775,-0.0024 c -0.02963,0 -0.05953,-0.0016 -0.08916,-0.0024 l -0.11086,-0.0034 -0.138113,-0.0053 -0.124089,-0.0053 -0.03228,-0.0013 -0.118268,-0.0064 c -0.03281,-0.0019 -0.06562,-0.0034 -0.09816,-0.0056 l -0.07646,-0.0045 c -0.09604,-0.0061 -0.192088,-0.01296 -0.288131,-0.02037 l -0.100542,-0.0079 -0.127,-0.01085 -0.148431,-0.01376 c -0.08282,-0.0077 -0.165629,-0.01614 -0.248444,-0.0254 h -0.004 c 1.209146,-2.697394 0.597694,-5.216492 -1.845733,-7.658066 -1.602317,-1.6002 -2.668588,-3.963723 -2.889515,-4.482571 -0.447675,-1.535906 -1.632743,-3.243263 -3.60045,-3.243263 -0.166423,2.65e-4 -0.332316,0.01349 -0.496623,0.03942 -0.862277,0.135467 -1.61581,0.631825 -2.153443,1.378479 -0.58074,-0.722577 -1.145625,-1.296987 -1.656271,-1.621631 -0.769937,-0.487892 -1.538023,-0.735542 -2.286794,-0.735542 -0.933979,0 -1.769268,0.383646 -2.351352,1.0795 l -0.01455,0.01773 -0.03281,-0.137848 -0.0013,-0.0058 c -0.110701,-0.473604 -0.203702,-0.951442 -0.27887,-1.431925 0,-0.0034 0,-0.0066 -0.0016,-0.0098 l -0.0164,-0.108744 c -0.0089,-0.05874 -0.01752,-0.117739 -0.02593,-0.176477 -0.0069,-0.04895 -0.01376,-0.0979 -0.02011,-0.146579 -0.0064,-0.04868 -0.01323,-0.09763 -0.01905,-0.146579 -0.0064,-0.04921 -0.01217,-0.09816 -0.01799,-0.147108 -0.0056,-0.04657 -0.01095,-0.09313 -0.01614,-0.1397 l -0.0016,-0.01191 c -0.02386,-0.214841 -0.04432,-0.429947 -0.06141,-0.645318 l -0.0093,-0.124619 c -0.0026,-0.03413 -0.005,-0.06853 -0.0071,-0.103188 0,-0.0079 -0.0011,-0.01614 -0.0016,-0.02355 l -0.0087,-0.138113 c -0.0032,-0.05001 -0.0056,-0.100012 -0.0082,-0.150019 -0.0026,-0.04974 -0.0053,-0.09975 -0.0074,-0.150018 l -0.0053,-0.130969 -0.0016,-0.03969 -0.004,-0.121179 -0.0029,-0.102658 c 0,-0.04101 -0.0019,-0.08229 -0.0027,-0.123296 l -0.0021,-0.129381 c -5.3e-4,-0.04313 0,-0.08599 -0.0011,-0.129117 -0.0013,-0.04339 0,-0.08652 0,-0.12991 0,-11.073368 8.977576,-20.050945 20.051976,-20.050945 11.0744,0 20.051712,8.977048 20.051712,20.050945 v 0.259027 c 0,0.04313 -0.0011,0.08652 -0.0021,0.129381 0,0.03598 -0.0013,0.07117 -0.0024,0.107156 0,0.03202 -0.0013,0.06377 -0.0026,0.09472 0,0.04048 -0.0024,0.0807 -0.0037,0.121179 v 0.0034 c -0.0034,0.08784 -0.0071,0.175683 -0.01085,0.263525 l -0.0016,0.0291 -0.0069,0.131233 -0.0064,0.103982 c -0.01482,0.246327 -0.03413,0.492654 -0.05768,0.738452 v 0.0034 c -0.0042,0.04604 -0.009,0.09234 -0.01402,0.138377 -0.01164,0.107157 -0.02355,0.214313 -0.03545,0.321469 l -0.01349,0.107685 -0.01667,0.126471 c -0.0058,0.0463 -0.01217,0.09234 -0.01879,0.138377 -0.0071,0.05159 -0.01482,0.102923 -0.02222,0.154252 l -0.01852,0.12118 -0.0217,0.137583 c -0.0074,0.04577 -0.01482,0.09128 -0.02355,0.137054 -0.009,0.04551 -0.01588,0.09102 -0.02381,0.13679 -0.01587,0.09102 -0.03228,0.181768 -0.05001,0.272521 -0.03519,0.18071 -0.07197,0.360891 -0.11086,0.540808 -0.0098,0.04471 -0.01984,0.08969 -0.03016,0.134408 -0.564356,-0.548481 -1.311539,-0.847196 -2.135981,-0.847196 -0.747977,0 -1.516856,0.247386 -2.286529,0.735542 -0.51091,0.324379 -1.075267,0.899054 -1.656556,1.621631 -0.538427,-0.746918 -1.291961,-1.243012 -2.153179,-1.378743 -0.164307,-0.02567 -0.330465,-0.03889 -0.496888,-0.03916 -1.968235,0 -3.15251,1.707356 -3.60045,3.243263 -0.221985,0.518848 -1.288256,2.882106 -2.892425,4.484952 -2.441575,2.433637 -3.057789,4.941623 -1.867429,7.627937 z m 20.701,-5.399617 -0.0079,0.02355 c -0.0056,0.01508 -0.01111,0.03016 -0.0172,0.04498 -0.0095,0.02249 -0.01958,0.04445 -0.03016,0.06641 -0.02567,0.05239 -0.05477,0.103187 -0.08678,0.151871 -0.04419,0.06588 -0.09261,0.128852 -0.145257,0.188119 -0.01217,0.01376 -0.02381,0.02725 -0.03757,0.04075 -0.01852,0.02037 -0.03836,0.04022 -0.05794,0.06006 -0.356394,0.353219 -0.899319,0.662516 -1.513152,0.946679 -0.06959,0.03148 -0.139965,0.06297 -0.211402,0.09446 l -0.07091,0.03149 c -0.04736,0.0209 -0.09446,0.0418 -0.144198,0.06218 -0.04842,0.02064 -0.0971,0.04101 -0.145785,0.06112 l -0.147637,0.06112 c -0.345282,0.142081 -0.69903,0.277284 -1.044311,0.411163 l -0.147373,0.05715 -0.14605,0.05715 c -0.09684,0.03784 -0.192616,0.07567 -0.287073,0.113506 l -0.140493,0.05662 -0.137848,0.05662 -0.068,0.02831 c -0.04498,0.01905 -0.08943,0.03757 -0.13335,0.05662 -1.015471,0.435504 -1.745721,0.878681 -1.592263,1.42875 0.0042,0.01561 0.009,0.03043 0.01429,0.04471 0.01376,0.04075 0.03254,0.07937 0.05583,0.115359 0.01376,0.0217 0.02963,0.04207 0.04736,0.06059 0.180446,0.187325 0.508794,0.157692 0.922867,0.009 0.0336,-0.01217 0.068,-0.02513 0.102658,-0.03889 0.02381,-0.009 0.04736,-0.01852 0.07117,-0.02804 l 0.03572,-0.01508 c 0.09472,-0.04022 0.194998,-0.08493 0.297656,-0.133879 0.02567,-0.01191 0.05159,-0.02355 0.07752,-0.03731 0.506148,-0.247385 1.080029,-0.581025 1.649413,-0.884502 0.08731,-0.04736 0.174889,-0.0926 0.261937,-0.137583 0.142346,-0.07382 0.286015,-0.144992 0.431006,-0.21299 0.539221,-0.253471 1.045898,-0.433388 1.453621,-0.433388 0.191029,0 0.360098,0.03916 0.500592,0.129117 l 0.02355,0.01561 c 0.07117,0.05027 0.133085,0.111918 0.18362,0.182827 0.01164,0.01667 0.02381,0.03387 0.03413,0.05159 0.01111,0.01826 0.0217,0.03704 0.03175,0.05609 0.201348,0.382058 0.03281,0.77814 -0.361421,1.166283 -0.378619,0.372534 -0.967581,0.737923 -1.637242,1.076325 -0.04948,0.02514 -0.09948,0.05027 -0.149754,0.07461 -1.992577,0.978429 -4.601369,1.715294 -4.637881,1.724554 -0.695325,0.180181 -1.689629,0.416983 -2.80961,0.59399 l -0.165894,0.02566 -0.02699,0.004 c -0.254,0.0381 -0.508793,0.0717 -0.764116,0.100806 l -0.02355,0.0024 c -0.464344,0.05292 -0.940594,0.09128 -1.417638,0.107421 h -0.0071 c -0.17145,0.0063 -0.342635,0.0093 -0.514085,0.0093 h -0.197379 c -0.261408,-0.0037 -0.522552,-0.01535 -0.783167,-0.03545 -0.0061,0 -0.01243,0 -0.01879,-0.0013 -0.09313,-0.0071 -0.186531,-0.01588 -0.2794,-0.02619 -0.159809,-0.0172 -0.319352,-0.03836 -0.478367,-0.06324 -0.06191,-0.01032 -0.128058,-0.02117 -0.191823,-0.03228 -0.0291,-0.0053 -0.05794,-0.01058 -0.08678,-0.0164 l -0.0069,-0.0013 c -0.09181,-0.01746 -0.183092,-0.03678 -0.274109,-0.05768 -0.05265,-0.01191 -0.105568,-0.02381 -0.157691,-0.03784 l -0.03122,-0.0082 c -0.02593,-0.0063 -0.05133,-0.01323 -0.07673,-0.02011 l -0.01402,-0.0037 -0.08176,-0.02355 c -0.02963,-0.0085 -0.059,-0.0172 -0.08864,-0.02593 l -0.01058,-0.0032 -0.07699,-0.02355 c -0.0291,-0.009 -0.05794,-0.01852 -0.08678,-0.02778 -0.02381,-0.0079 -0.04736,-0.01614 -0.07117,-0.02381 l -0.05212,-0.01826 c -0.05027,-0.01746 -0.100013,-0.03598 -0.149754,-0.05503 l -0.0471,-0.01826 -0.03889,-0.01561 c -0.07488,-0.03016 -0.149489,-0.06165 -0.223308,-0.09472 l -0.04921,-0.02355 -0.0082,-0.0037 c -0.01746,-0.0082 -0.03466,-0.0164 -0.05212,-0.02381 -0.03413,-0.0164 -0.068,-0.03334 -0.1016,-0.05054 l -0.01005,-0.005 -0.04868,-0.02566 c -0.08652,-0.04498 -0.17145,-0.09313 -0.254529,-0.144462 l -0.04551,-0.02778 c -0.02355,-0.01429 -0.04498,-0.02884 -0.06747,-0.04339 l -0.05927,-0.03942 c -0.02143,-0.01429 -0.04286,-0.02884 -0.06377,-0.04392 l -0.0381,-0.02699 c -0.04022,-0.02884 -0.07964,-0.05821 -0.118533,-0.08864 -0.02064,-0.01588 -0.04101,-0.03228 -0.06138,-0.04736 -0.04524,-0.03625 -0.08943,-0.07355 -0.133086,-0.111919 l -0.0019,-0.0016 c -0.0426,-0.03678 -0.08414,-0.07488 -0.124619,-0.113771 l -0.0021,-0.0026 c -0.02117,-0.02011 -0.0418,-0.04022 -0.06244,-0.06112 -0.02037,-0.0209 -0.04101,-0.04154 -0.06085,-0.06244 -0.02011,-0.02117 -0.04022,-0.0426 -0.0598,-0.06456 -0.01905,-0.02064 -0.03757,-0.04154 -0.05609,-0.06271 l -0.0064,-0.0071 c -0.09551,-0.11086 -0.184943,-0.227012 -0.267758,-0.347927 l -0.03281,-0.04842 c -0.0217,-0.03202 -0.04313,-0.06429 -0.06429,-0.09657 l -0.06244,-0.09604 c -0.03069,-0.04683 -0.06059,-0.09419 -0.08969,-0.141817 -0.0209,-0.03387 -0.04154,-0.06773 -0.06191,-0.101864 -0.0172,-0.02911 -0.0344,-0.05794 -0.0508,-0.08652 -0.0093,-0.01561 -0.01799,-0.03149 -0.02672,-0.04736 -0.0087,-0.0164 -0.01905,-0.03307 -0.02831,-0.04974 l -0.01482,-0.02619 c -0.005,-0.0087 -0.0066,-0.01138 -0.0093,-0.0172 -0.01799,-0.03149 -0.03545,-0.0635 -0.05239,-0.09604 -0.0077,-0.01402 -0.01535,-0.02831 -0.02355,-0.04233 l -0.02381,-0.04551 -0.02355,-0.04524 -0.04551,-0.09181 c -0.0074,-0.01508 -0.01455,-0.03016 -0.0217,-0.04524 -0.01561,-0.03254 -0.03043,-0.06456 -0.04524,-0.09657 -0.0058,-0.01296 -0.01191,-0.02593 -0.0172,-0.03889 -0.02037,-0.04418 -0.03969,-0.0889 -0.05794,-0.134144 -0.01243,-0.0299 -0.02381,-0.05953 -0.03598,-0.08916 -0.03413,-0.08731 -0.06615,-0.175419 -0.09552,-0.264584 -0.0087,-0.02646 -0.01746,-0.05265 -0.02513,-0.07911 -0.01905,-0.06006 -0.03625,-0.12065 -0.05159,-0.181769 -0.01878,-0.07117 -0.03545,-0.143139 -0.04948,-0.215371 -0.009,-0.0426 -0.01693,-0.08546 -0.02355,-0.128587 -0.0071,-0.0426 -0.01323,-0.0852 -0.01826,-0.127529 -0.01085,-0.0844 -0.01852,-0.169069 -0.02302,-0.254 0,-0.01402 -0.0013,-0.02831 -0.0016,-0.04233 -0.0013,-0.02804 -0.0021,-0.05609 -0.0024,-0.08414 -0.01482,-1.1303 0.557478,-2.217473 1.780646,-3.440112 2.178579,-2.176728 3.446992,-5.362046 3.446992,-5.362046 0,0 0.03413,-0.133615 0.105304,-0.325702 0.02381,-0.06376 0.04868,-0.127265 0.07488,-0.189971 0.0299,-0.07091 0.06191,-0.141023 0.09631,-0.209815 l 0.01006,-0.02011 c 0.04418,-0.08784 0.09207,-0.173302 0.144198,-0.256646 0.01191,-0.01932 0.02355,-0.03863 0.03731,-0.05768 0.03863,-0.05768 0.07964,-0.113506 0.122766,-0.167746 0.03334,-0.04154 0.06879,-0.08176 0.106098,-0.119856 0.126471,-0.130175 0.270669,-0.236538 0.433917,-0.293423 l 0.02064,-0.0066 c 0.01376,-0.0045 0.02725,-0.0087 0.04128,-0.0127 0.0164,-0.0042 0.03281,-0.0082 0.04921,-0.01164 l 0.0074,-0.0013 c 0.03466,-0.0069 0.06932,-0.01164 0.104511,-0.01402 h 0.0032 c 0.01826,0 0.03651,-0.0019 0.0553,-0.0019 0.04683,2.64e-4 0.0934,0.004 0.1397,0.01111 0.196321,0.03096 0.383381,0.147902 0.544248,0.328348 l 0.0217,0.0254 c 0.05239,0.06138 0.100013,0.127 0.142346,0.195792 0.03175,0.05106 0.06165,0.104775 0.08996,0.161131 0.01138,0.02381 0.02222,0.04551 0.03307,0.06879 0.0053,0.01191 0.01058,0.02355 0.01561,0.03572 0.01058,0.02355 0.02037,0.04736 0.03016,0.07223 0.0553,0.141816 0.09816,0.288131 0.128323,0.437356 0.03202,0.161131 0.05054,0.324644 0.05583,0.48895 0.0019,0.07223 0.0019,0.145256 0,0.21934 -0.0013,0.02804 -0.0026,0.05636 -0.0048,0.08467 -0.0217,0.31459 -0.09022,0.624152 -0.203465,0.918634 -0.01138,0.0291 -0.02381,0.05874 -0.03545,0.08837 -0.05689,0.135996 -0.123031,0.267759 -0.197644,0.394759 -0.0426,0.0725 -0.08864,0.144462 -0.137847,0.2159 l -0.03016,0.04286 c -0.116681,0.162984 -0.246856,0.315913 -0.389202,0.4572 -0.140229,0.140494 -0.290513,0.270404 -0.449527,0.389202 -0.159544,0.11774 -0.309033,0.248444 -0.447146,0.390525 -0.397669,0.417513 -0.490273,0.785548 -0.400844,1.064684 0.01058,0.03149 0.02302,0.06244 0.03731,0.09234 0.03307,0.06482 0.07593,0.124354 0.127264,0.176213 l 0.01402,0.01402 c 0.01455,0.01402 0.0299,0.02752 0.04551,0.04048 l 0.01587,0.01296 c 0.03863,0.02963 0.07938,0.05609 0.121973,0.07911 0.01217,0.0066 0.02355,0.01323 0.03757,0.01958 0.05847,0.0291 0.119592,0.05239 0.182563,0.07011 l 0.01746,0.0045 0.02355,0.0063 0.02064,0.005 0.02196,0.0048 0.02196,0.0045 0.0209,0.0034 c 0.01561,0.0029 0.03149,0.0053 0.0471,0.0074 l 0.01535,0.0021 0.02725,0.0029 0.01693,0.0016 0.02805,0.0021 h 0.01614 l 0.0291,0.0013 h 0.09181 l 0.02619,-0.0013 0.03016,-0.0019 0.03678,-0.0034 0.0344,-0.0042 c 0.0077,0 0.01561,-0.0021 0.02355,-0.0034 0.121179,-0.01773 0.239183,-0.05186 0.350837,-0.1016 0.02381,-0.01006 0.04736,-0.02117 0.06906,-0.03281 0.04657,-0.02328 0.09181,-0.04948 0.135202,-0.07832 0.06059,-0.03969 0.11774,-0.0844 0.17145,-0.133086 l 0.03731,-0.03545 c 0.0058,-0.0058 0.01191,-0.01138 0.01746,-0.01746 0.03651,-0.03651 0.07091,-0.07514 0.102923,-0.115623 0.05662,-0.07144 0.106892,-0.147373 0.150548,-0.227277 0.51779,-0.941388 1.06045,-1.869017 1.627452,-2.781565 l 0.07779,-0.124619 0.07858,-0.124883 c 0.03942,-0.06297 0.07885,-0.125413 0.118269,-0.187061 l 0.03995,-0.06218 0.07964,-0.124089 c 0.106892,-0.165365 0.214048,-0.328877 0.321998,-0.490802 l 0.0807,-0.12065 c 0.161925,-0.239713 0.323585,-0.473075 0.483394,-0.695061 l 0.0799,-0.109537 c 0.173831,-0.240242 0.355071,-0.474927 0.54319,-0.704056 l 0.07488,-0.08943 c 0.01217,-0.01508 0.02355,-0.02963 0.03704,-0.04418 l 0.07329,-0.08493 c 0.01217,-0.01402 0.02381,-0.02778 0.03651,-0.04127 l 0.07091,-0.08017 0.03572,-0.03863 c 0.0344,-0.03731 0.06932,-0.07408 0.104775,-0.110596 0.02381,-0.02355 0.04577,-0.04736 0.06879,-0.06932 0.134144,-0.137319 0.282046,-0.26035 0.44159,-0.366977 l 0.03678,-0.02355 0.03731,-0.02381 c 0.02381,-0.01482 0.04789,-0.0291 0.0725,-0.0426 0.625475,-0.354806 1.143529,-0.381 1.44145,-0.08308 0.18071,0.18071 0.280458,0.479954 0.275167,0.896143 0,0.01852 0,0.03678 -0.0016,0.05583 v 0.02064 c 0,0.01879 -0.0016,0.0381 -0.0029,0.05741 0,0.02355 -0.0029,0.04736 -0.0053,0.07091 -0.0024,0.02381 -0.0034,0.0418 -0.0058,0.06271 0,0.0061 -0.0013,0.01217 -0.0021,0.01826 -0.0019,0.01852 -0.0042,0.03731 -0.0066,0.05583 0,0.0058 0,0.01138 -0.0024,0.0172 -0.0026,0.02514 -0.0063,0.05027 -0.01085,0.07514 -0.0029,0.02302 -0.0066,0.04604 -0.01111,0.06906 -0.0019,0.01323 -0.0045,0.02619 -0.0066,0.03942 -0.0069,0.03757 -0.01587,0.07488 -0.02672,0.11139 -0.02037,0.06826 -0.04524,0.135202 -0.07461,0.200289 -0.0127,0.02831 -0.02619,0.05662 -0.03995,0.0844 -0.02858,0.05741 -0.06085,0.116152 -0.09631,0.177007 -0.01773,0.0299 -0.03598,0.06085 -0.05556,0.09181 l -0.02963,0.0471 c -0.03016,0.04736 -0.06165,0.09525 -0.09446,0.143669 -0.03281,0.04842 -0.068,0.0979 -0.105834,0.147902 -0.04895,0.06668 -0.100541,0.134673 -0.155045,0.203464 l -0.04127,0.05212 c -0.116682,0.145256 -0.236273,0.288131 -0.358511,0.428625 l -0.0971,0.109802 -0.04948,0.05556 c -0.06747,0.07541 -0.135202,0.150283 -0.203465,0.224631 l -0.05239,0.05662 c -0.03466,0.03757 -0.07091,0.07567 -0.105569,0.113506 -0.03545,0.03836 -0.07144,0.07646 -0.107421,0.114565 l -0.109008,0.114829 -0.110331,0.115094 c -0.03678,0.03836 -0.07382,0.07726 -0.111125,0.115623 l -0.224632,0.23151 c -1.072885,1.100402 -2.203449,2.1971 -2.586037,2.880783 -0.0254,0.04472 -0.04842,0.09049 -0.06932,0.137319 -0.05424,0.124354 -0.07699,0.230717 -0.06165,0.316706 0.005,0.02831 0.01508,0.05556 0.02963,0.08017 0.0217,0.03731 0.04789,0.0717 0.07805,0.102394 0.01402,0.01376 0.02858,0.02672 0.04445,0.03836 0.07858,0.05609 0.173831,0.08493 0.270404,0.08202 h 0.03016 l 0.03096,-0.0021 0.03122,-0.0037 0.02567,-0.0037 c 0.0034,-2.64e-4 0.0069,-0.0011 0.01032,-0.0019 l 0.02355,-0.0045 0.0064,-0.0016 0.02593,-0.0056 0.0093,-0.0024 0.02778,-0.0071 0.03307,-0.0098 c 0.0217,-0.0066 0.04339,-0.01402 0.06562,-0.02222 0.04789,-0.01693 0.09472,-0.03651 0.140494,-0.05847 0.01164,-0.0056 0.02355,-0.01085 0.03493,-0.01693 l 0.03519,-0.01746 c 0.04604,-0.02328 0.09181,-0.04842 0.137848,-0.07567 0.03678,-0.0217 0.07329,-0.04392 0.109802,-0.06747 l 0.03546,-0.02355 c 0.01164,-0.0074 0.02355,-0.01508 0.03519,-0.02381 l 0.03519,-0.02355 0.01852,-0.01296 0.0508,-0.03545 c 0.04736,-0.03281 0.09154,-0.06641 0.136525,-0.100541 l 0.004,-0.0029 0.07091,-0.05503 c 0.0971,-0.07673 0.189441,-0.153987 0.272785,-0.226748 l 0.05556,-0.04895 0.0053,-0.0048 0.02884,-0.02566 c 0.06826,-0.06112 0.129116,-0.118269 0.179916,-0.165629 l 0.02064,-0.02011 0.05001,-0.04736 0.0299,-0.0291 0.01032,-0.01058 0.0029,-0.0029 c 0.0254,-0.0254 0.0254,-0.0254 0.0508,-0.05106 l 0.0021,-0.0021 0.0095,-0.0085 c 0.0029,-0.0032 0.0069,-0.0063 0.01138,-0.01032 l 0.0037,-0.0034 0.01005,-0.009 0.05371,-0.04736 0.03016,-0.02725 c 0.01482,-0.0127 0.03096,-0.02725 0.04736,-0.04286 l 0.03625,-0.03175 c 0.0063,-0.0053 0.0127,-0.01138 0.01931,-0.0172 l 0.03784,-0.03307 0.05583,-0.04868 0.02937,-0.02567 c 0.115094,-0.100277 0.255323,-0.221191 0.415925,-0.357452 l 0.06588,-0.05556 0.109008,-0.09128 0.111125,-0.09313 c 0.145521,-0.12065 0.302154,-0.248973 0.467783,-0.382323 l 0.108744,-0.08731 c 0.0926,-0.07355 0.187854,-0.148961 0.284163,-0.224631 0.03863,-0.03043 0.07805,-0.06085 0.118268,-0.09102 0.09869,-0.0762 0.197909,-0.152135 0.297392,-0.227013 0.227013,-0.17145 0.461169,-0.343164 0.697971,-0.510645 l 0.101864,-0.07064 c 0.07091,-0.04921 0.141817,-0.09816 0.21299,-0.14605 l 0.06429,-0.04366 c 0.127264,-0.08573 0.255587,-0.169598 0.384969,-0.251619 l 0.06429,-0.04048 0.06377,-0.03969 c 0.06376,-0.03942 0.127529,-0.07858 0.1905,-0.116417 l 0.06323,-0.03757 0.126736,-0.07382 c 0.04154,-0.02408 0.08281,-0.04762 0.124089,-0.07091 l 0.02487,-0.01402 0.09842,-0.05371 c 0.04075,-0.02222 0.08176,-0.04366 0.122238,-0.06456 l 0.06085,-0.03122 0.05874,-0.0299 c 0.134409,-0.06747 0.271198,-0.12991 0.410369,-0.18706 0.01905,-0.0079 0.03784,-0.01561 0.05662,-0.02381 0.03731,-0.01561 0.07435,-0.0299 0.111125,-0.0426 0.03678,-0.01243 0.07303,-0.0254 0.108744,-0.0381 0.03254,-0.01085 0.06403,-0.0209 0.09472,-0.03043 l 0.01032,-0.0032 c 0.0164,-0.005 0.03281,-0.0098 0.04921,-0.01402 l 0.0048,-0.0013 c 0.03334,-0.0095 0.06668,-0.01826 0.100277,-0.02619 h 0.0026 c 0.04948,-0.01191 0.09763,-0.02196 0.144727,-0.0299 0.01614,-0.0026 0.03202,-0.0053 0.04736,-0.0074 0.04577,-0.0069 0.09181,-0.01164 0.137847,-0.01482 0.0291,-0.0021 0.05847,-0.0029 0.08758,-0.0029 h 0.02222 c 0.02963,0 0.05821,0.0019 0.08652,0.0048 0.01297,0 0.02593,0.0024 0.03863,0.0042 h 0.0053 c 0.0127,0.0013 0.02567,0.0034 0.0381,0.0061 0.01244,0.0026 0.02514,0.0045 0.03731,0.0074 h 0.0042 c 0.01217,0.0026 0.02355,0.0061 0.03625,0.0095 0.10107,0.02725 0.193939,0.07858 0.270933,0.149489 l 0.0069,0.0069 0.01349,0.01323 0.01323,0.01402 c 0.106098,0.111654 0.19394,0.239448 0.260085,0.378618 l 0.01032,0.02355 c 0.02249,0.05292 0.04022,0.107686 0.05265,0.163777 0.0344,0.156369 0.02514,0.319353 -0.02699,0.470694 -0.02249,0.06588 -0.05001,0.129911 -0.08255,0.191294 l -0.0217,0.03916 c -0.08255,0.138377 -0.179917,0.267229 -0.290777,0.384175 l -0.02381,0.02514 c -0.05212,0.0553 -0.106362,0.109008 -0.162189,0.160602 -0.01773,0.01667 -0.03598,0.03334 -0.0545,0.05001 l -0.02805,0.0254 c -0.05821,0.05159 -0.11774,0.101865 -0.178065,0.151077 -0.01058,0.0085 -0.02143,0.01693 -0.03175,0.02593 -0.04207,0.03387 -0.08546,0.06826 -0.130439,0.102659 -0.155046,0.118533 -0.313002,0.232833 -0.473869,0.343164 -0.09472,0.06482 -0.192617,0.130175 -0.293688,0.196586 -0.188383,0.12356 -0.378089,0.244475 -0.569647,0.363008 -0.0553,0.03413 -0.110861,0.06879 -0.167482,0.103187 -0.520435,0.320146 -1.097491,0.662517 -1.712912,1.034786 l -0.159279,0.09684 c -0.174361,0.106363 -0.338932,0.207963 -0.493713,0.304536 l -0.07805,0.04921 -0.147637,0.09472 c -0.05847,0.03704 -0.115359,0.07355 -0.170657,0.109538 -0.0418,0.02672 -0.08255,0.05318 -0.122502,0.07937 l -0.07885,0.05186 c -0.03836,0.02513 -0.07646,0.05027 -0.114564,0.07594 l -0.03704,0.02355 c -0.03916,0.02619 -0.07726,0.05186 -0.1143,0.07726 l -0.06059,0.04127 -0.07117,0.04948 -0.06562,0.04577 c -0.103717,0.07276 -0.20611,0.147108 -0.30771,0.222779 l -0.03545,0.02699 c -0.03995,0.03016 -0.07858,0.06032 -0.115887,0.08969 l -0.04868,0.03889 c -0.08202,0.06588 -0.156369,0.129116 -0.223573,0.189441 l -0.03281,0.03016 c -0.01879,0.0172 -0.03731,0.0344 -0.05477,0.05133 -0.01244,0.01164 -0.02381,0.02355 -0.03625,0.03519 l -0.0172,0.01693 c -0.03784,0.03784 -0.07461,0.07673 -0.110332,0.116681 l -0.01746,0.02011 c -0.03889,0.04498 -0.07276,0.08811 -0.102658,0.130175 l -0.01323,0.01905 c -0.03439,0.05027 -0.06482,0.103452 -0.09075,0.15875 l -0.009,0.01931 -0.0056,0.01349 -0.0045,0.01164 -0.0061,0.01614 c -0.0019,0.0056 -0.0056,0.01535 -0.0077,0.02381 -0.01085,0.03148 -0.01879,0.06403 -0.02408,0.0971 l -0.0026,0.01773 -0.0021,0.01614 -0.0013,0.01561 v 0.08308 c 0,0.0069 0,0.01402 0.0016,0.02117 2.65e-4,0.0042 7.94e-4,0.0085 0.0013,0.0127 0,0.0069 0.0019,0.01376 0.0026,0.0209 l 0.005,0.0291 v 0.0013 c 0.0019,0.0093 0.0037,0.01852 0.0061,0.02778 0.0024,0.0093 0.0048,0.01958 0.0077,0.02937 0.0085,0.0299 0.01879,0.05953 0.03069,0.08837 0,0.0021 0.0019,0.0045 0.0026,0.0066 0.0032,0.0071 0.0061,0.01455 0.0095,0.0217 0.01296,0.03016 0.02752,0.05953 0.04339,0.08837 l 0.01667,0.0299 0.01746,0.03016 0.01826,0.03016 c 0.0032,0.005 0.0066,0.0095 0.01058,0.01402 l 0.0061,0.0063 0.0063,0.0058 0.0071,0.0056 c 0.0048,0.0034 0.0098,0.0064 0.01508,0.0093 0.0053,0.0024 0.01111,0.005 0.01693,0.0071 0.0064,0.0021 0.0127,0.004 0.01905,0.0056 0.152665,0.0344 0.46646,-0.09207 0.883179,-0.312208 l 0.07488,-0.03969 0.126736,-0.06906 0.06218,-0.0344 c 0.04392,-0.02381 0.08916,-0.05027 0.134937,-0.07646 l 0.08387,-0.04736 c 0.551127,-0.317235 1.209675,-0.724958 1.890183,-1.122891 0.0635,-0.03731 0.12753,-0.07435 0.191559,-0.11139 l 0.128587,-0.08202 c 0.06429,-0.03704 0.128323,-0.07355 0.192617,-0.109537 0.273579,-0.155575 0.550862,-0.305065 0.831056,-0.448204 l 0.125677,-0.06376 c 0.08361,-0.04128 0.166423,-0.08149 0.248179,-0.12065 0.158486,-0.07514 0.318559,-0.146315 0.480219,-0.213783 l 0.08864,-0.03598 0.01085,-0.0042 c 0.46937,-0.186002 0.895085,-0.301096 1.239572,-0.301096 0.07461,-5.29e-4 0.148961,0.0056 0.222515,0.01826 h 0.0021 c 0.02381,0.0042 0.04524,0.009 0.06694,0.01455 h 0.004 c 0.03175,0.0077 0.06297,0.01746 0.09313,0.02963 0.02408,0.0087 0.04736,0.01905 0.06985,0.03122 0.09869,0.05001 0.183092,0.123825 0.246063,0.214841 0.0053,0.0077 0.01032,0.01561 0.01508,0.02381 0.02328,0.03545 0.04339,0.07276 0.0598,0.111919 0.0098,0.02249 0.01879,0.04577 0.02725,0.07091 0.0085,0.0254 0.01588,0.04974 0.02355,0.07594 0.05609,0.200555 0.05053,0.41275 -0.01588,0.610129 z"
       fill="#ff9d00"
       id="path121536"
       style="stroke-width:0.264583" /><path
       fill-rule="evenodd"
       clip-rule="evenodd"
       d="m 53.946514,36.476907 v -0.129646 c 0,-11.073871 -8.974137,-20.050919 -20.048801,-20.050919 -11.074136,0 -20.051686,8.977577 -20.051686,20.050919 l -2.65e-4,0.04339 c -2.64e-4,0.02884 -5.29e-4,0.05742 0,0.08626 0.0013,0.04313 0.0017,0.08625 0.0013,0.129381 l 0.0016,0.09525 5.29e-4,0.0344 0.0013,0.04709 c 5.3e-4,0.0254 0.0013,0.05054 0.0013,0.07594 l 0.0026,0.102923 0.0042,0.120914 0.0013,0.03969 0.0053,0.125148 v 0.0058 l 0.0074,0.146314 v 0.0037 c 0.0027,0.05001 0.0053,0.100013 0.0085,0.149754 0.0026,0.0463 0.0056,0.09234 0.0087,0.138378 l 7.94e-4,0.0082 c 0.0023,0.03942 0.005,0.07911 0.0079,0.118533 l 7.94e-4,0.01032 c 0.0027,0.0381 0.0056,0.07646 0.0087,0.1143 l 5.29e-4,0.0074 0.0053,0.06615 c 0.01585,0.190764 0.03437,0.381529 0.05556,0.571764 l 0.0013,0.01191 0.01588,0.1397 0.01826,0.147108 c 0.01225,0.0979 0.02532,0.195527 0.03916,0.293158 0.0083,0.059 0.01683,0.11774 0.02567,0.176477 l 0.0013,0.0071 c 0.01976,0.132821 0.04109,0.265642 0.06403,0.397934 0.0658,0.38391 0.143087,0.765968 0.231775,1.145381 l 0.0013,0.0061 0.0085,0.03572 c 0.0079,0.03387 0.01588,0.06773 0.02434,0.101865 l 0.01455,-0.01773 c 0.582083,-0.695854 1.417108,-1.0795 2.351352,-1.0795 0.748771,0 1.517121,0.247386 2.286794,0.735542 0.510646,0.324379 1.075267,0.899054 1.656292,1.621631 0.537633,-0.746918 1.29114,-1.243012 2.153152,-1.378479 0.164571,-0.02593 0.330729,-0.03916 0.496888,-0.03942 1.967706,0 3.152775,1.707621 3.60045,3.243263 0.220927,0.519112 1.287198,2.882106 2.894806,4.480718 2.443427,2.441311 3.054879,4.960673 1.845733,7.6581 h 0.004 c 0.08255,0.009 0.165365,0.01746 0.248444,0.02514 0.04948,0.0048 0.09895,0.0095 0.148431,0.01376 l 0.01746,0.0016 c 0.03625,0.0034 0.07276,0.0066 0.109273,0.0093 l 0.100542,0.0082 c 0.09578,0.0074 0.191822,0.01402 0.288395,0.02037 l 0.0762,0.0045 0.06059,0.0034 0.03783,0.0021 0.118005,0.0063 0.03228,0.0013 0.124354,0.0053 0.137848,0.0053 0.111125,0.0032 0.01852,7.94e-4 c 0.02328,7.94e-4 0.0471,0.0019 0.07064,0.0019 l 0.02514,5.29e-4 c 0.156104,0.0037 0.311944,0.0056 0.468048,0.0056 h 0.165629 l 0.118533,-0.0013 c 0.0291,-0.0016 0.05794,-0.0016 0.08705,-0.0016 h 0.04604 l 0.03995,-7.93e-4 c 0.01561,-5.3e-4 0.03148,-0.0011 0.0471,-0.0011 h 0.04736 l 0.09287,-0.0026 0.1397,-0.0048 0.153987,-0.0066 c 0.04419,-0.0019 0.08811,-0.004 0.132292,-0.0064 l 0.04736,-0.0026 0.07012,-0.004 0.04154,-0.0024 0.03096,-0.0019 0.142081,-0.0095 c 0.04736,-0.0029 0.09472,-0.0066 0.142081,-0.01032 l 0.128588,-0.01006 0.09075,-0.0077 0.09922,-0.009 c 0.101865,-0.0095 0.203465,-0.01958 0.304536,-0.03016 0.06456,-0.0071 0.128587,-0.01429 0.192881,-0.02196 l 0.112977,-0.01349 c -1.19036,-2.686315 -0.574146,-5.1943 1.859492,-7.626085 1.603904,-1.602582 2.670175,-3.966104 2.892425,-4.484952 0.447939,-1.535907 1.63195,-3.243263 3.600185,-3.243263 0.166423,2.65e-4 0.332581,0.01323 0.496888,0.03942 0.861218,0.135467 1.615016,0.631825 2.153443,1.378479 0.58129,-0.722577 1.145646,-1.297252 1.656292,-1.621631 0.769673,-0.488156 1.538552,-0.735542 2.286529,-0.735542 0.824442,0 1.57189,0.29898 2.136246,0.847196 0.03096,-0.138112 0.06085,-0.276225 0.08943,-0.414866 0.01746,-0.08652 0.03466,-0.173303 0.05159,-0.26035 0.02064,-0.106892 0.04022,-0.214313 0.05821,-0.321734 0.0048,-0.0291 0.0098,-0.05821 0.01535,-0.08758 0.0087,-0.04577 0.0164,-0.09102 0.02355,-0.137054 l 0.0029,-0.01746 0.01879,-0.119856 0.01852,-0.121444 2.64e-4,-0.0013 c 0.0074,-0.0508 0.01508,-0.101865 0.02196,-0.15293 0.0056,-0.03863 0.01085,-0.07726 0.01587,-0.116152 l 0.0032,-0.02222 0.0164,-0.126471 0.01349,-0.107685 c 0.0082,-0.07091 0.01614,-0.141817 0.02381,-0.21299 0.0034,-0.02831 0.0064,-0.05689 0.0093,-0.08546 l 0.0026,-0.02302 c 0.005,-0.04736 0.0095,-0.09446 0.01376,-0.141816 l 0.01058,-0.110067 c 0.02196,-0.243946 0.03969,-0.487892 0.05345,-0.732367 v -0.0016 l 0.0071,-0.129646 0.0013,-0.0291 0.0053,-0.123031 c 0.0021,-0.0463 0.004,-0.09313 0.0056,-0.140494 v -0.0034 l 0.0013,-0.03413 c 0.0013,-0.0291 0.0024,-0.05821 0.0024,-0.08705 l 5.29e-4,-0.01191 c 0.0011,-0.02699 0.0021,-0.05503 0.0021,-0.08282 l 7.94e-4,-0.02381 c 7.94e-4,-0.02778 0.0016,-0.0553 0.0016,-0.08308 l 5.29e-4,-0.02355 c 7.94e-4,-0.03545 0.0016,-0.07064 0.0016,-0.106098 z m -25.02191,20.03081 c 1.587765,-2.328863 1.475317,-4.0767 -0.703527,-6.254221 -2.178843,-2.177521 -3.446991,-5.362046 -3.446991,-5.362046 0,0 -0.47334,-1.849966 -1.55284,-1.679839 -1.0795,0.169862 -1.871371,2.933964 0.388673,4.625975 2.260071,1.69201 -0.449527,2.839243 -1.319477,1.251479 -0.870188,-1.588029 -3.245088,-5.669756 -4.476724,-6.450542 -1.23137,-0.780785 -2.097352,-0.343164 -1.807104,1.266031 0.144198,0.798777 1.485107,2.161911 2.737909,3.435615 1.271058,1.292489 2.451364,2.492375 2.199216,2.917031 -0.500856,0.843492 -2.264833,-0.990864 -2.264833,-0.990864 0,0 -5.523442,-5.02629 -6.725973,-3.716338 -1.10834,1.207294 0.600869,2.233613 3.235061,3.815292 0.224102,0.134673 0.454818,0.273314 0.691091,0.416189 3.013604,1.824567 3.248025,2.305844 2.820458,2.996142 -0.157956,0.255058 -1.166812,-0.350573 -2.407708,-1.09564 -2.115344,-1.27 -4.904846,-2.944548 -5.298546,-1.445683 -0.341048,1.297252 1.711061,2.09206 3.57214,2.81305 1.550458,0.600604 2.968625,1.149879 2.760133,1.895475 -0.216164,0.772848 -1.388004,0.128323 -2.669116,-0.576527 -1.438011,-0.791369 -3.013605,-1.658408 -3.529013,-0.679979 -0.974725,1.849437 6.723063,4.026693 6.786298,4.042568 2.487083,0.645055 8.80319,2.011892 11.010873,-1.223168 z m 10.22985,0 c -1.588029,-2.328863 -1.475317,-4.0767 0.703527,-6.254221 2.178844,-2.177521 3.447256,-5.362046 3.447256,-5.362046 0,0 0.473075,-1.849966 1.552575,-1.679839 1.0795,0.169862 1.871663,2.933964 -0.388673,4.625975 -2.260335,1.69201 0.449528,2.839243 1.319742,1.251479 0.86995,-1.588029 3.243792,-5.669756 4.475163,-6.450542 1.23137,-0.780785 2.097616,-0.343164 1.807368,1.266031 -0.144198,0.798777 -1.485106,2.162175 -2.738173,3.435879 -1.270793,1.292225 -2.4511,2.492111 -2.198952,2.916767 0.500592,0.843492 2.266157,-0.991923 2.266157,-0.991923 0,0 5.523177,-5.026289 6.725708,-3.716337 1.108339,1.207293 -0.601134,2.233877 -3.235325,3.815821 -0.224102,0.134408 -0.454554,0.272785 -0.690827,0.415925 -3.013869,1.824302 -3.248025,2.305843 -2.820459,2.995877 0.157957,0.255058 1.166813,-0.350573 2.407444,-1.095375 2.115609,-1.27 4.905111,-2.944813 5.298811,-1.445948 0.341047,1.297252 -1.711061,2.092325 -3.572405,2.813314 -1.550458,0.600604 -2.96836,1.149615 -2.760133,1.895475 0.216165,0.772848 1.387475,0.128059 2.668058,-0.576791 1.438011,-0.791369 3.013869,-1.658673 3.529542,-0.67998 0.974725,1.850761 -6.724121,4.025636 -6.786562,4.041775 -2.487084,0.646907 -8.803217,2.013744 -11.009842,-1.221316 z"
       fill="#ffd21e"
       id="path121538"
       style="stroke-width:0.264583" /><path
       fill-rule="evenodd"
       clip-rule="evenodd"
       d="m 40.409902,30.889436 c 0.312473,0.110596 0.545042,0.44741 0.766233,0.767556 0.29898,0.433123 0.577321,0.835819 1.004359,0.608806 0.504031,-0.267758 0.917045,-0.678921 1.187185,-1.181629 0.27014,-0.502576 0.384969,-1.074023 0.3302,-1.642004 -0.04075,-0.424683 -0.175154,-0.835078 -0.3937,-1.201526 -0.218546,-0.366474 -0.515673,-0.6799 -0.869685,-0.917734 -0.354277,-0.237807 -0.756973,-0.39407 -1.178719,-0.457544 -0.42201,-0.06347 -0.852752,-0.03254 -1.261269,0.09051 -0.546364,0.164545 -1.03161,0.48731 -1.394619,0.92755 -0.362743,0.440214 -0.58711,0.978138 -0.644525,1.545775 -0.05715,0.56777 0.0553,1.13972 0.323057,1.643592 0.197908,0.372269 0.637116,0.19685 1.100666,0.01138 0.363538,-0.145256 0.741892,-0.296598 1.030817,-0.194732 z M 26.816669,30.8897 c -0.312473,0.110596 -0.545306,0.447411 -0.766498,0.767557 -0.298979,0.432858 -0.577321,0.835818 -1.004358,0.608806 -0.376502,-0.20029 -0.703792,-0.481806 -0.958586,-0.823913 -0.254793,-0.342106 -0.430477,-0.736335 -0.514614,-1.154588 -0.08414,-0.418174 -0.07461,-0.849763 0.02805,-1.263756 0.102923,-0.413994 0.296068,-0.8001 0.565679,-1.130512 0.270139,-0.330226 0.609864,-0.596503 0.995098,-0.779674 0.385233,-0.183171 0.80645,-0.278633 1.232958,-0.279585 0.426508,-9.26e-4 0.84799,0.09271 1.234017,0.274161 0.386027,0.181478 0.727075,0.446273 0.998537,0.775309 0.363009,0.440213 0.587375,0.978243 0.64479,1.546013 0.05715,0.567769 -0.0553,1.139745 -0.323321,1.643539 -0.198438,0.372268 -0.637646,0.196585 -1.101196,0.01111 -0.363273,-0.145256 -0.741627,-0.296598 -1.030552,-0.194469 z m 11.490325,12.369536 c 2.154502,-1.697567 2.945871,-4.468548 2.945871,-6.17564 0,-1.349375 -0.90805,-0.924719 -2.361407,-0.205317 l -0.08176,0.04075 c -1.334294,0.660665 -3.110177,1.54014 -5.059627,1.54014 -1.949714,0 -3.725598,-0.87974 -5.059362,-1.540404 -1.500452,-0.743215 -2.441575,-1.209411 -2.441575,0.1651 0,1.760802 0.841904,4.652433 3.153039,6.332537 0.3048,-0.619125 0.733954,-1.168664 1.261004,-1.614223 0.526786,-0.445558 1.14009,-0.777346 1.801284,-0.974989 0.230716,-0.06879 0.468312,0.328348 0.711729,0.734748 0.234685,0.392377 0.474398,0.793485 0.718608,0.793485 0.259821,0 0.515408,-0.395288 0.764911,-0.781315 0.260614,-0.403225 0.514614,-0.796395 0.760412,-0.717814 1.237192,0.397139 2.271977,1.258358 2.886869,2.402946 z"
       fill="#32343d"
       id="path121540"
       style="stroke-width:0.264583" /><path
       d="m 38.3062,43.258971 c -1.122098,0.884237 -2.613554,1.477169 -4.555596,1.477169 -1.824831,0 -3.252258,-0.523346 -4.348427,-1.320006 0.305065,-0.618861 0.734484,-1.1684 1.261269,-1.613694 0.526785,-0.445559 1.14009,-0.777611 1.801019,-0.975519 0.453231,-0.135202 0.933185,1.528233 1.430073,1.528233 0.532077,0 1.044575,-1.652852 1.525587,-1.499129 1.236662,0.397404 2.271183,1.258623 2.886075,2.402946 z"
       fill="#ff323d"
       id="path121542"
       style="stroke-width:0.264583" /><path
       fill-rule="evenodd"
       clip-rule="evenodd"
       d="m 21.664993,33.290265 c -0.204734,0.137848 -0.434657,0.233892 -0.676566,0.282575 -0.241935,0.04868 -0.491093,0.04921 -0.733213,0.0016 -0.24212,-0.04789 -0.47244,-0.142875 -0.677757,-0.279664 -0.205316,-0.137054 -0.381582,-0.313002 -0.518715,-0.518319 -0.137134,-0.205052 -0.23241,-0.435504 -0.280379,-0.677333 -0.04797,-0.242094 -0.0477,-0.491332 7.94e-4,-0.733425 0.0485,-0.241829 0.144303,-0.471752 0.28186,-0.676804 0.137584,-0.204841 0.314246,-0.380551 0.519854,-0.517023 0.413543,-0.274452 0.91903,-0.373803 1.405678,-0.276251 0.486648,0.09755 0.914797,0.384043 1.190651,0.796713 0.275696,0.41275 0.376767,0.91784 0.280723,1.404673 -0.09604,0.487098 -0.381264,0.916252 -0.79293,1.193271 z m 26.831898,0 c -0.204787,0.137848 -0.43471,0.233892 -0.676539,0.282575 -0.241829,0.04868 -0.491067,0.04921 -0.73316,0.0016 -0.242094,-0.04789 -0.472546,-0.142875 -0.677863,-0.279664 -0.205317,-0.137054 -0.381529,-0.313002 -0.518583,-0.518319 -0.137319,-0.205052 -0.232569,-0.435504 -0.280459,-0.677333 -0.04789,-0.242094 -0.04763,-0.491332 7.94e-4,-0.733425 0.04842,-0.241829 0.144198,-0.471752 0.281781,-0.676804 0.137584,-0.204841 0.314325,-0.380551 0.519907,-0.517023 0.413543,-0.274452 0.919162,-0.373803 1.405731,-0.276251 0.486569,0.09755 0.914664,0.384043 1.190625,0.796713 0.275696,0.41275 0.376766,0.91784 0.280723,1.404673 -0.09604,0.487098 -0.381265,0.916252 -0.792957,1.193271 z"
       fill="#ffad03"
       id="path121544"
       style="stroke-width:0.264583" /><path
       style="fill:#000000;stroke-width:0.264583"
       d="m 141.97354,50.678433 c -0.86942,-0.346683 -1.79994,-1.231942 -2.32961,-2.216295 -0.3459,-0.642814 -0.4472,-1.913192 -0.53274,-6.68073 l -0.10562,-5.886979 h 2.01308 2.01308 l 0.0115,4.431771 c 0.0135,5.180232 0.22415,6.596949 1.08466,7.293745 0.93261,0.755182 2.69597,0.479346 3.76465,-0.588888 l 0.82773,-0.827368 0.0905,-5.154629 0.0905,-5.154631 h 1.96003 1.96003 v 7.408333 7.408334 h -1.85209 -1.85208 v -1.121775 -1.121775 l -0.67232,0.725061 c -1.0967,1.182743 -2.55578,1.785157 -4.27808,1.7663 -0.84254,-0.0092 -1.82949,-0.135437 -2.19321,-0.280474 z m 17.39568,-0.08025 c -1.48066,-0.528394 -2.7078,-1.5762 -3.33819,-2.850327 l -0.56188,-1.135647 0.64548,-0.172628 c 0.35501,-0.09495 1.23056,-0.253098 1.94565,-0.351446 1.27759,-0.175715 1.30972,-0.16265 1.8493,0.75188 0.87838,1.488736 3.31281,1.875173 5.01642,0.7963 0.62143,-0.393538 0.81606,-1.520063 0.31603,-1.829099 -0.1536,-0.09493 -1.57788,-0.51331 -3.16506,-0.929722 -1.58718,-0.416414 -3.23325,-0.936802 -3.65795,-1.156422 -2.72481,-1.409055 -3.13514,-4.870564 -0.81297,-6.858251 2.32702,-1.991848 7.77184,-1.899869 9.98732,0.168713 0.70282,0.656226 1.47819,2.01543 1.26903,2.224591 -0.0756,0.07564 -0.86068,0.28843 -1.74455,0.472874 l -1.60702,0.335357 -0.89434,-0.89434 c -0.79431,-0.794314 -1.05347,-0.894339 -2.31713,-0.894339 -2.21718,0 -3.34459,1.099955 -2.00356,1.954779 0.32742,0.208711 1.78593,0.690115 3.24114,1.069787 1.45521,0.379672 3.16757,0.955791 3.80524,1.280268 3.57473,1.818979 2.44464,6.950147 -1.78974,8.126342 -1.3534,0.375936 -5.00511,0.311758 -6.18322,-0.10867 z m 16.7717,0.01524 c -1.34985,-0.48849 -2.8025,-1.842487 -3.49757,-3.260037 -0.53434,-1.089766 -0.62434,-1.671458 -0.62673,-4.050628 -0.003,-2.507007 0.0668,-2.911071 0.7106,-4.140417 1.45413,-2.776852 4.19604,-4.120811 7.32261,-3.589208 2.32563,0.395422 3.62148,1.366111 4.70983,3.528028 0.58294,1.157954 0.90419,2.248895 1.02301,3.473993 l 0.17321,1.785937 h -5.05791 c -2.78185,0 -5.05724,0.0893 -5.05643,0.198438 8e-4,0.10914 0.12336,0.63727 0.27233,1.173617 0.61305,2.207292 3.23658,3.09576 4.73038,1.601962 0.40158,-0.401579 0.77938,-0.86438 0.83955,-1.028446 0.17569,-0.479078 3.83928,0.22682 3.72659,0.718037 -0.31743,1.383657 -2.06162,3.093659 -3.72283,3.649853 -1.16108,0.388745 -4.4022,0.353023 -5.54664,-0.06113 z m 5.78456,-9.038953 c 0,-0.756168 -0.73508,-2.169361 -1.35384,-2.602756 -0.33879,-0.2373 -1.06993,-0.431454 -1.62475,-0.431454 -1.6492,0 -2.36583,0.685226 -2.97462,2.844271 -0.16713,0.592725 -0.15456,0.595313 2.89267,0.595313 2.57261,0 3.06054,-0.06463 3.06054,-0.405374 z m 21.03438,9.093634 c -1.61447,-0.588057 -3.10243,-1.951497 -3.747,-3.433423 -0.34046,-0.782741 -0.424,-0.74512 2.58761,-1.165247 1.15357,-0.160927 1.23144,-0.132289 1.39326,0.512464 0.26675,1.062791 1.34704,1.61241 3.12186,1.588299 1.72189,-0.02339 2.59739,-0.559959 2.59739,-1.591842 0,-0.76939 -0.37238,-0.960522 -3.28449,-1.685822 -4.3003,-1.071052 -5.74146,-2.064763 -6.10366,-4.208634 -0.19775,-1.170493 0.45242,-2.986679 1.35578,-3.787194 1.98132,-1.755762 7.18402,-1.967288 9.53963,-0.387851 0.85771,0.575097 2.11533,2.465759 1.82998,2.751115 -0.0857,0.08567 -0.9199,0.299355 -1.85384,0.474864 -1.64681,0.30947 -1.70769,0.30113 -2.01668,-0.27622 -0.40943,-0.765021 -1.34102,-1.182936 -2.63694,-1.182936 -1.32736,0 -2.26616,0.364336 -2.49842,0.969603 -0.29592,0.771136 0.6207,1.275006 3.73446,2.052851 1.57312,0.392978 3.35075,1.000723 3.95027,1.350545 2.92454,1.706449 2.46251,5.914705 -0.83956,7.646919 -0.82317,0.431824 -1.60435,0.55984 -3.69007,0.60471 -1.45521,0.03131 -3.00302,-0.07319 -3.43958,-0.232201 z M 69.212987,40.392346 V 30.028121 l 5.622395,0.09621 c 4.662493,0.07979 5.803083,0.176302 6.680729,0.565314 2.052495,0.909757 3.781163,3.043277 4.459621,5.504063 1.657112,6.01037 -0.18428,11.922842 -4.298648,13.802408 -1.089412,0.497676 -1.818262,0.567851 -6.841702,0.658733 l -5.622395,0.101719 z m 11.02873,6.199306 c 1.328539,-0.971433 1.781246,-2.298636 1.890717,-5.54301 0.117541,-3.483666 -0.210264,-4.933362 -1.380048,-6.103147 -1.06867,-1.068669 -2.358765,-1.428972 -5.123254,-1.430841 l -2.182812,-0.0015 v 6.907723 6.907721 l 3.025084,-0.09603 c 2.540714,-0.08065 3.144409,-0.18328 3.770313,-0.640943 z m 40.300433,-1.833681 v -5.953125 h -1.19062 -1.19063 V 37.36485 35.924855 l 1.12448,-0.08136 1.12448,-0.08136 0.14694,-1.886083 c 0.25399,-3.259945 1.43434,-4.182629 5.15141,-4.026873 1.20916,0.05067 2.28008,0.173797 2.37983,0.273621 0.0997,0.09982 0.10094,0.766124 0.003,1.480667 l -0.17869,1.299169 -1.23753,-0.112597 c -1.61356,-0.146808 -2.10643,0.250795 -2.20831,1.781471 l -0.0792,1.190625 1.51719,0.07935 1.51719,0.07935 v 1.428801 1.428801 l -1.47577,0.07935 -1.47576,0.07935 0.0297,5.88698 0.0297,5.886979 h -1.99347 -1.99348 z m 9.525,0 v -5.953125 h -1.05833 -1.05834 v -1.455209 -1.455208 h 1.05834 1.05833 l 5.3e-4,-1.521354 c 5.3e-4,-1.860324 0.59438,-3.139326 1.85167,-3.987876 0.84242,-0.568547 1.14613,-0.615746 3.36317,-0.522662 1.34042,0.05628 2.50375,0.168947 2.58518,0.250374 0.0814,0.08143 0.0205,0.742682 -0.13535,1.469456 l -0.28339,1.321407 -1.26164,-0.121227 c -1.62739,-0.15636 -2.15142,0.316242 -2.15142,1.940156 v 1.171726 h 1.45521 1.45521 v 1.455208 1.455209 h -1.45521 -1.45521 v 5.953125 5.953125 h -1.98437 -1.98438 z m 58.7375,-1.455209 v -7.408333 h 1.85208 1.85209 v 0.986325 0.986326 l 0.8077,-0.979886 c 1.03172,-1.251661 2.35901,-1.687049 3.88793,-1.275353 0.60657,0.163332 1.16056,0.390333 1.23109,0.504446 0.0705,0.114112 -0.13508,0.934667 -0.45691,1.823454 -0.50342,1.390308 -0.64956,1.579921 -1.04649,1.357785 -0.25375,-0.142004 -0.95395,-0.221654 -1.556,-0.176998 -2.0377,0.151143 -2.56646,1.881971 -2.59112,8.481714 l -0.0116,3.108854 h -1.98438 -1.98437 z"
       id="path121306"
       sodipodi:nodetypes="sssccccsscccccccccccsssssscssssssssssscsssssssssccssscssssssssssssssssssssssssssssssssssccssssscccssccccsccccccccccsscccsccccccccccccccccccccccsssscssccccccccccccccccccssssssscccc" /><path
       style="fill:#fe180a;stroke-width:0.232255"
       d="m 103.60503,31.842596 c -0.46023,-0.267539 -1.70877,-0.892587 -4.274212,1.167227 -2.565439,2.059814 -1.991291,3.731343 -1.701939,4.166981 0.339476,0.513769 2.478861,2.306043 2.478861,2.306043 l 11.83383,15.188168 c 0,0 0.884,-0.111276 2.06875,-0.963612 1.27816,-0.91863 2.3057,-3.023429 1.53106,-4.548166 -0.43516,-0.854704 -9.55544,-14.070659 -11.29613,-16.580317 -0.1572,-0.224923 -0.30985,-0.544549 -0.64022,-0.736324 z"
       id="path121381" /><path
       style="fill:#a42615;stroke-width:0.232255"
       d="m 103.16987,32.467642 c 0.5787,0.568225 0.26428,1.967478 -1.59714,3.272027 -1.916105,1.344798 -3.178321,1.153022 -3.545137,0.63215 -0.385044,-0.549285 0.50124,-2.021932 1.733836,-2.97134 1.294101,-0.996762 2.779611,-1.55078 3.408441,-0.932837 z"
       id="path121383" /><path
       style="fill:#ca1837;stroke-width:0.232255"
       d="m 102.04436,39.248455 10.17061,15.361003 c 0,0 -0.8316,0.286479 -1.50144,0.258069 -0.93413,-0.03787 -1.43081,-0.459314 -1.43081,-0.459314 L 99.547262,39.800106 Z"
       id="path121385" /><path
       style="fill:#fdb700;stroke-width:0.232255"
       d="m 105.99732,35.109886 c 0,0 0.21644,0.961248 -1.28956,2.526232 -0.75414,0.783676 -1.28728,1.183801 -1.72472,1.451341 -0.44429,0.269906 -0.77009,0.411962 -0.77009,0.411962 l -1.32372,-0.473519 -0.0751,-1.659692 c 0,0 1.47866,-0.78841 2.46519,-1.9438 1.27816,-1.498692 1.05033,-2.339191 0.98881,-2.815078 0.22101,0.279375 1.72928,2.502554 1.72928,2.502554 z"
       id="path121387" /><path
       style="fill:#de7f14;stroke-width:0.232255"
       d="m 98.027593,37.619545 1.654093,2.391278 c 0,0 0.280238,0.194144 1.273614,-0.04972 0.59236,-0.146792 1.25537,-0.461682 1.25537,-0.461682 l -1.39891,-2.130842 c 0,0 -0.829331,0.395389 -1.496891,0.454579 -0.642499,0.05445 -1.287276,-0.203613 -1.287276,-0.203614 z"
       id="path121389" /><path
       style="fill:#fdb900;stroke-width:0.232255"
       d="m 114.71889,47.866527 0.56504,0.876014 c 0,0 0.1048,1.124611 -1.24627,2.542804 -0.50351,0.527975 -1.02754,0.913895 -1.48094,1.198007 -0.75413,0.47352 -1.31689,0.653458 -1.31689,0.653458 l -0.40098,-0.582431 c 0,0 0.52174,-0.18704 1.08221,-0.544549 0.59922,-0.383551 1.25311,-0.954142 1.6837,-1.456074 1.27818,-1.493958 1.11413,-2.687229 1.11413,-2.687229 z"
       id="path121391" /><path
       style="fill:#df7d15;stroke-width:0.232255"
       d="m 108.17771,52.748524 0.4625,0.696074 c 0,0 0.5787,0.07577 1.41486,-0.0071 0.51265,-0.04972 1.19159,-0.303055 1.19159,-0.303055 l -0.38959,-0.589532 c 0,0 -0.46023,0.191776 -1.1802,0.267539 -0.71995,0.07577 -1.49916,-0.06392 -1.49916,-0.06392 z"
       id="path121393" /><path
       style="fill:#d8a26d;stroke-width:0.232255"
       d="m 101.27654,34.212566 c 0.0479,0.26517 -0.14581,0.570591 -0.47619,0.783675 -0.32807,0.215453 -0.74273,0.03787 -0.7678,-0.151525 -0.0251,-0.189409 -0.125307,-2.216077 -0.91362,-2.315516 -0.79287,-0.101805 -1.157409,1.569721 -2.693022,2.000624 -1.102735,0.307788 -1.449041,0.01184 -1.449041,0.01184 l 0.145813,-0.911526 c 0,0 0.460231,0.303052 1.37613,-0.22729 0.96147,-0.556388 1.401194,-2.102431 2.788719,-1.962742 1.437651,0.144424 1.644981,1.811214 1.742941,2.10243 0.10022,0.288847 0.23012,0.580063 0.24607,0.670031 z"
       id="path121395" /><path
       style="fill:#fd8e02;stroke-width:0.232255"
       d="m 98.141512,29.029884 c -0.109363,0.229657 -2.711251,4.51265 -2.711251,4.51265 0,0 -0.01825,5.483368 -0.01825,5.675143 0,0.343302 -0.221004,0.475888 -0.476178,0.151525 -0.141257,-0.179937 -2.198623,-3.73134 -2.198623,-3.73134 0,0 -3.481337,1.484487 -3.738793,1.61944 -0.257456,0.132586 -0.403268,-0.03787 -0.257456,-0.362243 0.145812,-0.324362 2.437849,-4.588413 2.437849,-4.588413 0,0 -2.235074,-3.312275 -2.362666,-3.579815 -0.127581,-0.267538 0.05469,-0.438006 0.293908,-0.324361 0.239235,0.113645 3.005167,1.541309 3.005167,1.541309 0,0 1.009312,-3.035266 1.082223,-3.217572 0.127591,-0.324362 0.330366,-0.381185 0.421497,0.01895 0.09113,0.400124 1.00704,3.7124 1.00704,3.7124 0,0 2.932251,-1.600499 3.187429,-1.714144 0.255177,-0.113645 0.437446,0.05918 0.328083,0.28648 z"
       id="path121397" /><path
       style="fill:#ffe268;stroke-width:0.232255"
       d="m 96.088704,30.706147 -1.576623,2.379439 0.03642,3.885236 -1.428537,-2.646979 -2.656571,1.427664 1.831805,-3.17969 -1.173354,-1.979315 c 0,0 1.501438,0.876012 1.540171,0.781308 0.03876,-0.0947 0.660724,-2.038504 0.660724,-2.038504 L 93.94473,31.6011 Z"
       id="path121399" /><path
       style="fill:#fcba03;stroke-width:0.232255"
       d="m 95.427979,34.664778 0.0043,-0.954144 c 0,0 -0.549081,-0.08287 -1.061719,-0.639252 -0.446558,-0.487727 -0.781479,-1.141185 -1.168799,-0.570593 -0.291634,0.430904 0.353152,1.18617 0.877173,1.581559 0.801982,0.610841 1.34879,0.58243 1.34879,0.58243 z"
       id="path121401" /></g></svg>
