<?xml version="1.0" encoding="UTF-8" standalone="no"?>
<!-- Created with Inkscape (http://www.inkscape.org/) -->

<svg
   width="200"
   height="180"
   id="svg2"
   version="1.1"
   inkscape:version="1.2.2 (b0a8486541, 2022-12-01)"
   sodipodi:docname="flask.svg"
   inkscape:export-filename="flask.svg"
   inkscape:export-xdpi="96"
   inkscape:export-ydpi="96"
   xmlns:inkscape="http://www.inkscape.org/namespaces/inkscape"
   xmlns:sodipodi="http://sodipodi.sourceforge.net/DTD/sodipodi-0.dtd"
   xmlns="http://www.w3.org/2000/svg"
   xmlns:svg="http://www.w3.org/2000/svg"
   xmlns:rdf="http://www.w3.org/1999/02/22-rdf-syntax-ns#"
   xmlns:cc="http://creativecommons.org/ns#"
   xmlns:dc="http://purl.org/dc/elements/1.1/">
  <defs
     id="defs4" />
  <sodipodi:namedview
     id="base"
     pagecolor="#ffffff"
     bordercolor="#666666"
     borderopacity="1.0"
     inkscape:pageopacity="0.0"
     inkscape:pageshadow="2"
     inkscape:zoom="1.6113196"
     inkscape:cx="-0.31030468"
     inkscape:cy="116.36425"
     inkscape:document-units="px"
     inkscape:current-layer="layer1"
     showgrid="false"
     inkscape:window-width="1920"
     inkscape:window-height="1058"
     inkscape:window-x="1920"
     inkscape:window-y="22"
     inkscape:window-maximized="1"
     inkscape:showpageshadow="2"
     inkscape:pagecheckerboard="0"
     inkscape:deskcolor="#d1d1d1" />
  <metadata
     id="metadata7">
    <rdf:RDF>
      <cc:Work
         rdf:about="">
        <dc:format>image/svg+xml</dc:format>
        <dc:type
           rdf:resource="http://purl.org/dc/dcmitype/StillImage" />
      </cc:Work>
    </rdf:RDF>
  </metadata>
  <g
     inkscape:label="Layer 1"
     inkscape:groupmode="layer"
     id="layer1"
     transform="translate(-31.321779,-29.798933)">
    <path
       style="fill:#000000"
       d="m 88.4459,181.64583 c -7.28224,-5.72769 -15.050372,-11.21929 -20.358602,-18.95211 -11.16948,-13.63667 -19.76945,-29.42496 -25.64874,-46.01651 -3.55363,-10.78861 -4.77068,-22.355322 -9.35178,-32.72705 -4.792289,-7.533044 0.82122,-15.767897 9.07272,-18.16242 3.67374,-0.705104 10.13333,-4.170258 2.33595,-1.693539 -6.99059,5.128871 -7.66713,-4.655603 -0.49882,-5.27517 4.89202,-0.650249 6.69289,-4.655044 5.01996,-8.260251 -5.25132,-3.424464 12.73374,-7.18801 3.68438,-12.297799 -9.42699,-10.170666 13.18634,-12.128546 7.60728,-0.577786 -1.33545,8.882061 15.80123,-1.627907 11.82512,8.628945 4.04128,4.925694 15.133562,1.1211 14.858382,8.031392 5.88709,0.404678 7.90756,5.358061 13.43399,5.738347 5.72759,2.586557 16.1108,4.624792 18.0598,11.079149 -5.68242,4.498756 -18.84089,-9.292674 -19.47305,3.160397 1.71659,18.396078 1.27926,37.346435 8.00986,54.864985 3.18353,10.60759 10.9012,18.95779 17.87109,27.21946 6.66875,8.09126 15.70186,13.78715 24.90885,18.58338 8.07647,3.80901 16.78383,6.33528 25.58583,7.92044 3.5701,-2.7307 9.87303,-12.8828 15.44238,-8.60188 0.26423,4.81007 -11.0541,10.05512 -0.53248,9.5235 6.17819,-1.86378 10.46336,4.77803 15.55099,-1.21289 4.68719,5.55206 19.48197,-3.54734 16.14693,7.80115 -4.50972,2.90955 -11.08689,1.15142 -15.60404,5.15397 -7.44757,-3.71979 -13.37691,3.32843 -21.6219,2.43707 -9.15641,1.64002 -18.4716,2.30204 -27.75473,2.31642 -15.22952,-1.20328 -30.78158,-1.71049 -45.26969,-7.01291 -8.16166,-2.37161 -16.12649,-7.01887 -23.29968,-11.66829 z m 12.86204,5.5729 c 7.9696,3.44651 15.76243,7.07889 24.49656,8.17457 13.85682,1.92727 28.16653,4.89163 42.07301,2.18757 -6.2939,-2.84199 -12.80077,1.10719 -19.07096,-2.0322 -7.52033,1.61821 -15.59049,-0.41223 -23.23574,-1.41189 -8.69395,-3.87259 -18.0762,-6.53549 -26.21772,-11.56219 -10.17316,-3.71578 5.26142,4.76524 8.00873,5.45214 6.35952,3.60969 -6.99343,-1.85044 -8.87589,-3.35101 -5.32648,-2.9879 -6.00529,-2.36357 -0.52745,0.67085 1.10332,0.64577 2.19359,1.32226 3.34946,1.87216 z m -15.1647,-10.71691 c 7.72278,2.86052 -0.0341,-5.43082 -3.57294,-4.94904 -1.56791,-2.72015 -5.990302,-4.43854 -2.870722,-5.89973 -5.61153,1.9481 -5.87832,-7.40814 -8.51601,-6.07139 -5.93651,-1.87454 -2.31049,-8.51501 -9.38193,-12.59292 -0.64549,-4.29697 -7.02577,-8.02393 -9.0608,-14.50525 -0.89878,-3.31843 -7.20833,-12.84783 -3.33237,-3.97927 3.3002,8.53747 9.10662,15.84879 13.93868,23.15175 3.75209,6.95328 8.1825,14.22026 15.01577,18.55788 2.303442,2.20963 4.527452,5.59533 7.780322,6.28797 z M 63.895538,152.07561 c 0.26956,-1.16626 1.41242,2.52422 0,0 z m 31.496412,27.85526 c 1.71013,-0.76577 -2.45912,-0.96476 0,0 z m 4.19228,1.52924 c -0.43419,-2.1116 -1.91376,1.18074 0,0 z m 5.24749,2.18891 c 2.49828,-2.37871 -3.85009,-1.49983 0,0 z m 8.99389,5.01274 c 1.51811,-2.2439 -4.85872,-0.84682 0,0 z m -17.2707,-12.03933 c 3.88031,-2.51023 -5.01186,-0.0347 0,0 z m 3.9366,1.96293 c -0.11004,-1.32709 -1.40297,0.59432 0,0 z m 19.67473,12.28006 c 3.16281,1.99601 18.46961,4.3749 8.88477,0.81847 -1.60377,0.33811 -17.77263,-4.57336 -8.88477,-0.81847 z m -31.2343,-24.32615 c -0.30751,-1.33094 -4.90934,-1.4694 0,0 z m 9.1593,5.33813 c 2.38371,-1.66255 -4.94757,-1.28235 0,0 z m 7.70426,4.72382 c 3.42065,-1.28963 -5.54907,-1.29571 0,0 z M 85.20491,162.48011 c 3.71137,2.84621 14.96768,0.36473 5.68377,-1.69906 -4.22551,-2.2524 -13.748892,-3.79415 -7.25757,1.35821 l 1.57379,0.34088 z m 25.80872,15.75216 c 1.54595,-2.63388 -6.48298,-1.50411 0,0 z m -7.84249,-6.23284 c 9.0752,2.56719 -7.63142,-5.739 -2.23911,-0.94466 l 1.19513,0.54082 1.04399,0.4039 z m 15.72354,9.0878 c 8.59474,0.082 -7.76304,-1.18486 0,1e-5 z M 81.89796,157.50751 c -0.33569,-1.60094 -2.12096,0.13419 0,0 z m 51.5354,31.73502 c 0.2292,-2.89141 -2.80486,2.15157 0,0 z M 96.56519,166.48954 c -0.51986,-1.52251 -2.68548,-0.0622 0,0 z m -13.85213,-9.98649 c 4.93424,-0.29629 -6.755322,-2.17418 0,0 z M 66.303368,145.896 c -0.61415,-2.36536 -5.36922,-4.2519 0,0 z m 43.079322,27.33941 c -0.90373,-1.0307 -0.4251,0.22546 0,0 z m 26.81408,16.45475 c -0.086,-1.57503 -1.46039,0.59616 0,0 z m -29.18712,-18.90528 c 0.48266,-2.02932 -4.20741,-0.61442 0,0 z M 87.03359,158.12492 c 3.67079,-0.39305 -5.88043,-2.48161 0,0 z m 33.79135,20.99714 c 5.72042,-2.26627 -5.57541,-1.10635 0,0 z m -17.57682,-11.93145 c 6.59278,0.85002 -7.84442,-4.48425 -1.44651,-0.4773 l 1.4465,0.47734 z m 22.91296,14.0886 c 6.15514,-3.67975 4.12588,8.61677 10.44254,1.0388 6.23086,-4.54942 -5.38086,5.62451 2.29838,0.81116 5.55359,-3.71438 13.75643,1.76075 18.93848,3.5472 3.72659,-0.18307 7.34938,3.22236 11.16973,1.15059 7.3542,-1.98082 -14.38097,-2.93789 -8.68344,-6.4523 -6.72914,1.95848 -11.70093,-2.33483 -15.01213,-6.64508 -7.54812,-1.74298 -16.27548,-5.602 -20.04257,-12.28184 -1.5359,-2.50802 2.21884,0.35333 -1.32586,-3.74638 -4.54834,-4.04546 -6.81948,-8.63766 -9.87278,-13.5552 -3.64755,-1.94587 -4.07249,-7.67345 -4.44123,-0.19201 0.0289,-4.72164 -4.40393,-7.89964 -5.48589,-6.57859 -0.0194,-4.54721 4.74396,-2.26787 1.40945,-5.63228 -0.71771,-4.71302 -3.08085,-9.6241 -3.79115,-14.9453 -1.1036,-2.56502 -0.15541,-8.05863 -3.76662,-2.25204 -1.31566,6.13669 -0.43668,-7.54129 1.6093,-3.03083 2.68543,-4.60251 -0.9641,-4.0612 -1.11361,-3.42211 1.74931,-3.88333 1.10719,-9.391589 -0.45644,-7.29023 0.93213,-4.115856 1.47259,-15.147525 -1.3951,-13.192575 1.73833,-4.303958 3.29668,-19.694077 -4.24961,-13.826325 -3.05836,0.04294 -8.35454,1.110195 -10.85803,2.355243 7.8495,4.326857 -0.78955,1.562577 -3.984812,0.874879 -0.41634,4.003642 -3.58119,2.272086 -7.53512,2.311339 6.31527,0.781339 -3.07526,6.458962 -6.69814,4.253506 -4.7051,2.248756 4.06062,7.862038 0.0944,9.597586 0.48744,2.616581 -7.20822,-0.944906 -6.60383,5.097711 -4.56774,-1.92155 -0.62896,7.167956 1.65627,4.093816 7.76889,2.10261 5.46911,6.89631 5.66695,11.44992 -1.26583,2.6534 -6.24949,-6.23691 -1.10994,-5.82517 -4.05471,-6.58674 -4.48523,-2.38081 -7.85456,0.67911 -0.78386,0.22222 8.5944,4.35376 2.70906,6.3967 5.17788,0.79894 5.32519,5.33008 6.37928,8.19735 3.11219,3.24152 2.47523,-3.57931 6.19907,0.31623 -2.35649,-3.4705 -12.48183,-9.77839 -4.32957,-7.7553 -0.0436,-3.49291 -1.47441,-6.30951 1.02322,-6.24118 2.47337,-4.47926 -2.59038,11.044 2.98473,5.35124 1.54328,-0.67388 1.92554,-4.48494 4.69954,0.35989 4.0291,3.96363 1.45533,6.83577 -4.22816,3.20648 1.01683,3.44946 7.60306,4.68217 6.36535,10.07646 1.3121,4.7444 3.147842,2.99695 4.748002,2.72266 1.25523,4.60973 1.96801,1.2201 2.02756,-0.97355 5.74735,1.23033 4.40114,4.62773 6.19945,7.00134 3.96042,1.78761 -5.66869,-12.11713 1.13066,-4.18106 7.15358,6.4586 2.6828,9.15464 -3.73685,8.11995 4.06312,-0.32824 5.37342,5.49305 10.45569,5.28853 4.63456,2.20477 7.77237,10.67291 -0.21613,7.1478 -2.77074,-2.49821 -12.57574,-5.5801 -4.56731,-0.82823 7.39657,3.42523 13.27117,5.47432 20.40487,9.77384 5.10535,3.64464 7.31104,7.81908 9.24607,8.64541 -4.29084,2.04946 -12.93089,-1.63655 -6.51514,-2.76618 -4.00168,-0.72894 -8.50258,-2.75259 -4.66961,2.2333 3.25926,2.72127 11.54708,2.43298 13.0328,2.74132 -1.25934,2.77488 -3.4207,2.99556 0.0516,3.21078 -3.87375,2.06438 1.24216,2.38403 1.60114,3.56362 z m -7.9215,-22.36993 c -2.35682,-2.46475 -2.9662,-7.08134 -0.41852,-3.06426 1.30648,0.52466 4.18523,7.54428 0.41857,3.06426 z m 25.79733,16.38693 c 1.47004,-0.0952 0.0427,1.11681 0,0 z m -29.51867,-22.43039 c -0.0904,-3.72637 0.8525,2.87419 0,0 z m -2.56392,-3.44965 c -2.96446,-5.72787 3.73721,1.62212 0,0 z m -31.0707,-21.44495 c 1.7416,-0.46446 0.85685,2.97864 0,0 z m 24.7283,13.40357 c 1.06957,-4.01654 1.25692,3.37014 0,0 z M 88.14213,129.22731 c -1.23154,-2.21638 2.57601,2.07865 0,0 z m 14.99279,4.80618 c -2.80851,-6.29223 1.98836,-3.43699 0.62135,1.03124 z M 77.279738,116.7907 c -1.25563,-2.06432 -3.33267,-8.12135 -2.66399,-9.97042 0.60494,3.0114 6.403922,12.95956 2.84457,4.12096 -3.93338,-7.40908 4.701812,2.40491 5.590062,4.2529 0.41362,1.83837 -2.42679,-0.50225 -0.5022,3.80828 -3.509802,-4.90766 -2.07196,2.71088 -5.268442,-2.21172 z m -7.99071,-5.50612 c 0.32894,-4.79981 1.82927,3.29132 0,0 z m 3.5943,1.23728 c 1.71517,-3.62282 2.90824,5.05052 0,0 z m -8.64616,-6.68847 c -2.97496,-2.95622 -5.12781,-5.68132 0.13919,-1.83474 2.02948,0.0792 -4.509,-6.197046 0.48875,-1.99305 5.25531,0.95822 2.5951,8.61674 -0.62794,3.82779 z m 4.54171,-0.11873 c 1.72765,-1.71203 0.91718,1.6853 0,0 z m 2.79459,0.8959 c -2.61918,-4.9094 3.1788,2.05822 0,0 z m -5.55546,-5.30909 c -8.64844,-7.696507 10.86731,4.02451 1.4129,1.4269 l -1.41295,-1.42683 z m 24.779082,14.39717 c -3.7425,-2.24398 -0.99178,-15.797469 0.2845,-6.52785 3.6383,-1.17695 -0.20087,4.78728 2.51279,4.73208 -0.42767,3.76305 -1.64169,5.11594 -2.79729,1.79577 z m 9.16521,5.41684 c 0.36705,-4.08462 0.77249,2.79262 0,0 z m -1.59198,-1.57295 c 0.41206,-1.74497 0.0426,2.05487 0,0 z M 67.714538,98.772384 c -5.55604,-7.665657 16.147332,7.754126 3.55856,1.944296 -1.31543,-0.34404 -2.89821,-0.46688 -3.55856,-1.944296 z m 17.649122,9.357486 c -0.52578,-6.45461 1.17417,1.06991 -2e-4,-2e-5 z m 13.39976,8.59585 c 1.03698,-3.67668 0.0773,2.43221 0,0 z M 68.565658,95.846784 c 3.30218,-0.706291 13.684702,5.799386 4.15023,1.85832 -1.0594,-1.17279 -3.3178,-0.63994 -4.15023,-1.85832 z M 96.92241,109.9799 c 0.35296,-6.60002 1.97138,-3.94233 0.0122,0.94474 l -0.0121,-0.94473 -5e-5,-1e-5 z M 71.023748,93.550163 c 1.34545,-1.97361 -3.57163,-8.923063 0.70879,-2.492797 1.84955,1.469605 5.35511,2.461959 2.26002,3.080216 4.86774,4.294162 -1.18724,1.163612 -2.96881,-0.587419 z M 95.51987,107.91832 c 0.92952,-7.51843 0.81971,4.40485 0,0 z M 68.213728,86.605966 c 1.02771,-0.439207 0.54275,1.369335 0,0 z m 6.38963,3.803092 c 1.64441,-3.450522 3.03351,3.848297 0,0 z M 92.62691,100.43533 c -0.0174,-1.325196 0.34003,1.92765 0,0 z m -1.04404,-2.311386 c -2.50161,-6.171646 2.32693,3.267586 0,0 z m -1.536,-4.046372 c -0.41991,-2.550188 1.42712,3.203862 -8e-5,-9e-6 z m 2.49977,-4.063514 c -1.71663,-3.025123 2.16777,-13.331073 2.60122,-6.939418 -1.81185,4.980256 -0.52268,7.766309 0.74129,1.086388 2.33417,-5.257159 -0.50421,10.374054 -3.34255,5.853057 z m 2.56889,-15.326649 c 0.74833,-0.918921 0.16609,1.107082 0,0 z m -4.29002,84.534231 c -1.01755,-0.88802 0.12778,0.56506 0,0 z m 8.83773,4.47065 c 4.91599,1.26135 4.89086,-0.76487 0.44782,-1.36683 -2.3898,-2.22316 -9.93048,-4.58124 -3.18119,-0.27586 0.44699,1.13227 1.85944,1.10589 2.73337,1.64269 z M 82.20905,152.09931 c 2.70824,2.01956 10.20121,5.72375 3.85818,0.76868 2.13859,-2.48467 -4.09333,-3.80722 -2.02607,-5.46927 -5.258172,-3.21755 -4.14796,-2.93133 -0.46411,-2.8301 -6.319382,-2.82462 0.91217,-2.61333 0.57166,-4.06067 -2.4367,-0.48126 -12.103072,-4.29664 -6.416392,0.31341 -5.78089,-2.94751 -1.3776,1.09799 -3.12488,0.67029 -5.91134,-1.61178 5.264392,4.50224 -0.93885,2.98448 3.39133,2.6875 9.128312,6.88393 1.43379,2.84407 -1.01382,1.45934 5.506272,3.67136 7.106672,4.77911 z m 9.24319,5.31013 c 11.23877,3.62163 -5.51002,-4.4246 0,0 z m 47.3164,28.66432 c 0.14496,-2.22965 -1.53604,1.90201 0,0 z m 4.86324,2.04679 c 2.59297,-2.51255 0.106,4.00222 4.29655,-0.61509 0.0453,-3.30544 -0.12904,-5.25783 -4.81563,-1.24252 -1.29194,0.71648 -1.86871,3.76288 0.51908,1.85761 z M 66.433358,139.63843 c -0.79636,-3.1304 -5.58195,-3.11418 0,0 z m 5.19303,3.40294 c -1.9284,-3.19739 -6.88053,-2.89469 0,0 z m 29.543372,17.81697 c 2.8844,2.56199 13.24761,1.87984 3.50331,0.31527 -1.44321,-2.13386 -9.16415,-1.6203 -3.50331,-0.31527 z m 40.61236,25.08153 c 4.43933,-3.72512 -4.30122,1.66183 0,0 z m 9.2328,6.34473 c 0.0277,-1.19543 -1.91352,0.52338 0,0 z m 0.0142,-1.6736 c 4.91602,-5.20866 -4.76346,0.30807 -4e-5,0 z M 53.660788,128.94545 c -4.18995,-5.97826 -2.60459,-8.66544 -6.64514,-13.54677 -0.76491,-3.73279 -6.93167,-12.20326 -3.18958,-3.22947 3.42754,5.24836 4.44606,13.37434 9.83472,16.77624 z m 95.826352,60.00977 c 9.04429,-5.84575 -3.7125,-2.54641 0,0 z m 6.9041,2.70461 c 4.52911,-3.88867 -2.86491,-0.81334 0,0 z M 64.894068,133.03044 c 1.29621,-1.92838 -3.34764,-0.24666 0,0 z m 90.055602,56.78275 c 4.38526,-2.82746 -1.01036,-2.39335 -0.79483,0.26003 l 0.79484,-0.26003 z M 95.43581,152.30141 c -0.15075,-1.90924 -2.31574,0.16206 0,0 z m 3.67794,2.11629 c -1.16888,-2.36318 -1.79716,0.37121 0,0 z m 62.8725,37.30625 c 5.61806,-4.05283 -3.4056,-0.77594 -1.17927,0.76785 z m -2.15131,-1.03979 c 4.57663,-3.83506 -4.83183,1.69954 0,0 z m 10.99163,7.31983 c 3.0728,-2.05816 -3.73316,-0.66575 0,0 z M 67.712228,131.63987 c 4.11896,0.92286 16.460392,10.1439 9.17946,0.63772 -3.72899,-1.10384 -1.4926,-10.21906 -5.29621,-8.60579 2.55298,4.2649 2.10046,6.08018 -3.25964,3.3914 -6.73681,-3.28853 -3.78589,1.6297 -2.46929,2.98518 -1.79419,0.40772 2.37322,1.5572 1.84568,1.59149 z m -18.76588,-14.82026 c 0.7374,-3.04991 -6.78982,-16.77881 -3.55447,-6.87916 1.16786,2.07373 1.04913,6.00387 3.55447,6.87916 z M 83.3898,138.05474 c -2.12099,-1.77378 -0.10079,-0.25103 0,0 z m 5.223,1.21548 c -0.003,-3.23079 -5.77326,-1.31196 0,0 z m 45.26147,28.53321 c -0.86326,-2.20739 -3.41229,-0.0512 8e-5,4e-5 z m 2.17351,1.58769 c -0.32087,-1.23546 -1.25399,0.23848 0,0 z m 17.94015,11.3001 c 1.72546,-1.27472 -2.15318,-0.1628 0,0 z M 58.320038,119.21266 c 4.93524,-1.91072 -5.28775,-1.36248 0,0 z m 71.569732,45.08937 c -0.0549,-3.19499 -3.14622,0.79264 0,0 z M 56.370128,114.66881 c 3.17017,-1.07084 -2.93266,-0.70531 0,0 z m 9.20153,4.45726 c -0.0575,-1.05014 -0.97333,0.39747 0,0 z m 112.231412,68.82181 c 4.0765,-0.8265 13.36606,2.07489 14.86752,-1.08086 -4.95044,-0.12019 -17.12734,-3.49263 -17.70346,0.80479 l 1.08368,0.17072 1.75226,0.10534 z M 68.496138,119.86305 c 0.0709,-3.23755 -2.52467,-0.12092 0,0 z m -24.19316,-16.78229 c -1.09871,-6.168426 -4.17879,-0.93357 0,0 z m 5.76919,1.45013 c 0.0709,-1.9807 -5.28056,-1.78224 0,0 z m 3.29692,1.61923 c -0.95302,-0.77196 -0.74596,0.97521 0,0 z m 20.74472,13.30775 c 0.97661,-0.89718 -2.31212,-0.66455 0,0 z m -22.94063,-16.95964 c -0.55762,-4.658966 -6.682,-0.69805 0,0 z m -11.82776,-7.674506 c -0.16822,-2.150189 -1.15263,0.81111 0,0 z m 1.75934,-1.328672 c -0.28703,-2.549584 -1.51052,0.324387 0,0 z m 9.72079,5.802442 c 4.11048,-1.61465 -7.48726,-3.33984 -0.8399,-0.30506 z M 180.92315,179.65662 c 2.63092,-2.4121 -3.34373,-0.74577 0,0 z m 15.71669,8.14691 c 1.05433,-3.1186 -2.65452,0.41058 0,0 z M 51.818988,94.2025 c 0.43302,-3.016773 -3.25876,0.59902 0,0 z m -13.83032,-9.266194 c -0.74297,-4.25911 -0.64134,-11.735065 6.46513,-9.208583 -9.48596,1.883339 6.56534,11.790095 4.53836,3.968363 3.98862,0.195294 7.80266,-2.357284 5.70948,1.516403 7.85876,-0.867958 13.30713,-7.682612 20.89817,-6.72768 5.913062,-0.782493 12.378182,-1.375955 18.750262,-3.756157 5.23905,-0.37743 10.28235,-6.018062 7.41068,-9.361383 -7.14456,-0.604513 -14.62339,0.289393 -22.520112,1.858993 -8.75056,1.819117 -16.69902,5.275307 -25.52813,6.758866 -8.60589,1.15604 1.731,3.185165 -0.73407,3.637227 -4.49068,1.558136 5.35549,2.608852 -0.58218,4.251428 -3.667,-0.697239 -7.48387,-1.957184 -5.91749,-5.821523 -8.24369,1.069724 -15.48753,4.491129 -8.97452,12.880146 l 0.48441,0.0037 10e-6,-2.56e-4 z m 19.86429,-10.1168 c 1.93285,-7.120464 10.35523,5.859274 3.16805,0.945776 -0.85845,-0.642457 -2.2703,-1.166588 -3.16805,-0.945776 z m 0.37603,-3.452197 c 2.78967,-2.078257 1.48297,1.16516 0,0 z m 3.54222,0.05622 c 0.25183,-3.27648 8.10875,1.73455 1.29551,1.179499 z m 4.84543,-1.948193 c 1.76948,-2.067535 0.50862,1.83906 0,0 z m 1.23956,-0.83005 c 2.94638,-3.540216 16.685612,-2.259413 6.62897,-0.34519 -2.69555,-2.029363 -4.7618,1.196575 -6.62897,0.34519 z M 85.78622,65.8814 c -0.4482,-9.670222 8.90777,3.436477 0,0 z m 5.08754,-0.02784 c 1.86002,-4.873906 7.21807,-1.955774 0.86073,-0.979407 0.13805,0.518656 -0.18642,2.516173 -0.86073,0.979407 z M 49.812818,91.700803 c 5.55753,-3.403212 -5.89994,-2.952541 0,0 z m 4.10921,1.141866 c 1.94852,-2.071884 -4.23385,-0.840369 0,0 z m -12.10766,-8.592935 c 3.17557,-2.439416 -3.75784,-0.927473 0,0 z M 205.91676,186.91218 c 0.0918,-2.83019 -2.42718,1.27537 0,0 z m -16.67487,-11.37935 c 0.47417,-3.25845 -2.14286,0.28408 0,0 z m 21.26022,12.47672 c 4.43994,0.015 13.45265,-1.37884 3.79217,-1.37442 -1.51594,0.23641 -8.83311,0.18571 -3.79216,1.37439 z M 57.536578,90.845454 c 3.59326,-0.246807 5.62186,-3.963629 -0.69493,-3.749977 -9.78995,-1.013541 8.63751,3.352129 -1.2559,2.10383 -1.32937,0.880346 1.87361,1.889721 1.95083,1.646147 z m 3.16462,1.601748 c -0.37518,-2.307063 -1.11116,1.225591 0,0 z m 3.7539,-10.009901 c 1.55928,-1.934055 -2.1577,-0.517053 0,0 z M 52.504978,62.462054 c 6.41288,-2.181631 15.18239,-4.633087 18.21033,1.074184 -3.08159,-3.70893 -1.24361,-7.360157 1.66696,-1.937407 4.11558,5.486669 6.17592,-2.495489 3.49909,-4.335821 3.05046,3.790246 6.520042,5.581281 2.04243,0.239564 4.865692,-5.852929 -9.74272,0.766433 -13.06311,0.699775 -1.59756,0.717062 -16.49358,3.79889 -12.3557,4.259705 z m 3.75831,-7.197834 c 3.65732,-2.760416 12.64896,1.641989 6.87907,-2.743367 -0.56411,-0.498292 -12.63607,3.325475 -6.87907,2.743367 z m 13.33349,0.550473 c 4.28038,0.109225 -1.84632,-5.750287 3.2543,-3.095159 -0.8377,-2.736627 -5.93856,-3.248956 -8.43232,-4.342312 -1.41047,2.502054 2.87098,7.471102 5.17802,7.437471 z M 58.601268,43.711226 c 1.4808,-2.007406 -2.59521,1.017699 0,0 z m 5.44959,1.304353 c 6.89786,-0.914901 -1.7583,-2.970542 -1.38996,-0.07352 l 1.38996,0.07352 v -9e-6 z m -10.1755,-7.962078 c -4.85686,-6.340205 9.13399,1.065769 4.19942,-5.572646 -4.15326,-3.307245 -8.1443,3.721775 -4.19942,5.572646 z m 62.330132,33.572802 c 2.22762,-3.948988 -9.19697,-5.323011 -1.5009,-1.399578 0.70858,0.236781 0.54821,1.6727 1.5009,1.399578 z"
       id="path2900"
       clip-path="none" />
  </g>
</svg>
