<?xml version="1.0" encoding="UTF-8" standalone="no"?>
<svg
   width="107.143"
   height="141.66942"
   viewBox="0 0 107.143 141.66942"
   fill="none"
   version="1.1"
   id="svg121955"
   sodipodi:docname="wab.svg"
   inkscape:export-filename="../home/trtx/Projects/latentCall145.github.io/assets/svg/wab.png"
   inkscape:export-xdpi="96"
   inkscape:export-ydpi="96"
   xmlns:inkscape="http://www.inkscape.org/namespaces/inkscape"
   xmlns:sodipodi="http://sodipodi.sourceforge.net/DTD/sodipodi-0.dtd"
   xmlns="http://www.w3.org/2000/svg"
   xmlns:svg="http://www.w3.org/2000/svg">
  <defs
     id="defs121959" />
  <sodipodi:namedview
     id="namedview121957"
     pagecolor="#ffffff"
     bordercolor="#000000"
     borderopacity="0.25"
     inkscape:showpageshadow="2"
     inkscape:pageopacity="0.0"
     inkscape:pagecheckerboard="0"
     inkscape:deskcolor="#d1d1d1"
     showgrid="false" />
  <path
     d="m 4.1528,6.9214 c 0,3.8226 3.0988,6.9214 6.9214,6.9214 3.8226,0 6.9214,-3.0988 6.9214,-6.9214 C 17.9956,3.0988 14.8968,0 11.0742,0 7.2516,0 4.1528,3.0988 4.1528,6.9214 Z"
     fill="#ffc933"
     id="path121899" />
  <path
     d="m 0,34.6075 c 0,6.116 4.9581,11.0741 11.0741,11.0741 6.116,0 11.0741,-4.9581 11.0741,-11.0741 0,-6.1161 -4.9581,-11.0741 -11.0741,-11.0741 C 4.9581,23.5334 0,28.4914 0,34.6075 Z"
     fill="#ffc933"
     id="path121901" />
  <path
     d="M 11.0741,101.051 C 4.9581,101.051 0,96.093 0,89.977 0,83.861 4.9581,78.903 11.0741,78.903 c 6.116,0 11.0741,4.958 11.0741,11.074 0,6.116 -4.9581,11.074 -11.0741,11.074 z"
     fill="#ffc933"
     id="path121903" />
  <path
     d="m 11.0742,69.215 c -3.8226,0 -6.9214,-3.099 -6.9214,-6.922 0,-3.8222 3.0988,-6.9211 6.9214,-6.9211 3.8226,0 6.9214,3.0989 6.9214,6.9211 0,3.823 -3.0988,6.922 -6.9214,6.922 z"
     fill="#ffc933"
     id="path121905" />
  <path
     d="m 42.4968,72.536 c 0,6.117 4.9581,11.075 11.0742,11.075 6.116,0 11.074,-4.958 11.074,-11.075 0,-6.116 -4.958,-11.0736 -11.074,-11.0736 -6.1161,0 -11.0742,4.9576 -11.0742,11.0736 z"
     fill="#ffc933"
     id="path121907" />
  <path
     d="m 46.6496,100.222 c 0,3.823 3.0984,6.922 6.9214,6.922 3.823,0 6.921,-3.099 6.921,-6.922 0,-3.822 -3.098,-6.921 -6.921,-6.921 -3.823,0 -6.9214,3.099 -6.9214,6.921 z"
     fill="#ffc933"
     id="path121909" />
  <path
     d="m 46.6496,44.8504 c 0,3.8226 3.0984,6.9214 6.9214,6.9214 3.823,0 6.921,-3.0988 6.921,-6.9214 0,-3.8226 -3.098,-6.9214 -6.921,-6.9214 -3.823,0 -6.9214,3.0988 -6.9214,6.9214 z"
     fill="#ffc933"
     id="path121911" />
  <path
     d="m 46.6496,17.1644 c 0,3.8226 3.0984,6.9214 6.9214,6.9214 3.823,0 6.921,-3.0988 6.921,-6.9214 0,-3.8226 -3.098,-6.9214 -6.921,-6.9214 -3.823,0 -6.9214,3.0988 -6.9214,6.9214 z"
     fill="#ffc933"
     id="path121913" />
  <path
     d="m 84.995,34.6075 c 0,6.116 4.958,11.0741 11.074,11.0741 6.116,0 11.074,-4.9581 11.074,-11.0741 0,-6.1161 -4.958,-11.0741 -11.074,-11.0741 -6.116,0 -11.074,4.958 -11.074,11.0741 z"
     fill="#ffc933"
     id="path121915" />
  <path
     d="m 89.147,6.9214 c 0,3.8226 3.099,6.9214 6.922,6.9214 3.823,0 6.921,-3.0988 6.921,-6.9214 C 102.99,3.0988 99.892,0 96.069,0 92.246,0 89.147,3.0988 89.147,6.9214 Z"
     fill="#ffc933"
     id="path121917" />
  <path
     d="m 89.147,62.293 c 0,3.823 3.099,6.922 6.922,6.922 3.823,0 6.921,-3.099 6.921,-6.922 0,-3.8222 -3.098,-6.9211 -6.921,-6.9211 -3.823,0 -6.922,3.0989 -6.922,6.9211 z"
     fill="#ffc933"
     id="path121919" />
  <path
     d="m 89.147,89.977 c 0,3.823 3.099,6.922 6.922,6.922 3.823,0 6.921,-3.099 6.921,-6.922 0,-3.822 -3.098,-6.921 -6.921,-6.921 -3.823,0 -6.922,3.099 -6.922,6.921 z"
     fill="#ffc933"
     id="path121921" />
  <path
     d="m 8.048989,117.17012 7.122826,24.1869 h 2.601954 l 5.724903,-18.32351 0.664679,-2.77948 6.421461,21.10299 h 2.522029 l 6.962985,-24.14155 3.365332,-0.31581 v -1.91434 h -9.327801 v 1.91434 l 3.605951,0.33836 -4.406451,15.5627 -0.715778,3.65931 -5.886052,-19.23889 3.919524,-0.32148 v -1.91434 H 19.415382 v 1.91434 l 3.643519,0.29147 -5.044504,15.45317 -0.69176,3.56812 -5.223545,-19.00565 3.713393,-0.30711 v -1.91434 H 4.72297 v 1.91434 z"
     fill="#181b1f"
     id="path121929"
     style="stroke-width:0.431424" />
  <path
     fill-rule="evenodd"
     clip-rule="evenodd"
     d="m 49.14913,140.73179 c 1.30797,0.62523 2.78887,0.93763 4.44358,0.93763 1.49488,0 2.7893,-0.1952 3.88328,-0.58602 1.12104,-0.39082 2.06871,-0.89842 2.84258,-1.52364 0.49436,-0.41597 0.93937,-0.84771 1.33591,-1.29564 0.43802,0.4718 0.88653,0.95553 1.34639,1.45204 0.45375,0.46882 0.9206,0.84643 1.40098,1.13284 0.48039,0.2604 1.00095,0.44281 1.56126,0.5468 0.56075,0.13041 1.18787,0.19563 1.88181,0.19563 0.61358,0 1.17432,-0.0392 1.68135,-0.11721 0.53366,-0.0524 1.06734,-0.13041 1.601,-0.23441 l 0.12009,-1.87568 -4.28417,-0.42108 c -0.6459,-0.6785 -1.27302,-1.33272 -1.88093,-1.96178 -0.36597,-0.38997 -0.72538,-0.77056 -1.07738,-1.14263 0.63062,-0.79613 1.19005,-1.61357 1.67786,-2.45191 0.6673,-1.17203 1.24115,-2.44827 1.72153,-3.82872 0.31531,-0.90533 0.60136,-1.88907 0.85902,-2.95124 l 3.06443,-0.36959 v -1.8753 h -8.44695 v 1.8753 l 3.1972,0.34321 c -0.19085,0.90473 -0.40265,1.75401 -0.63543,2.54788 -0.37339,1.25021 -0.80049,2.40924 -1.28088,3.47725 -0.34456,0.74755 -0.72408,1.48188 -1.13764,2.203 -0.15591,-0.16323 -0.31051,-0.32476 -0.46379,-0.48415 -0.8005,-0.85964 -1.57437,-1.68007 -2.32159,-2.46128 -0.72101,-0.78139 -1.44159,-1.53669 -2.16217,-2.266 -0.69394,-0.75534 -1.30753,-1.41949 -1.84119,-1.9925 -0.47383,-0.50849 -0.92671,-0.99653 -1.35818,-1.46403 2.03247,-0.93563 3.52603,-1.89316 4.48069,-2.87265 1.06734,-1.09391 1.60144,-2.37019 1.60144,-3.82876 0,-1.51065 -0.54721,-2.72177 -1.64161,-3.63341 -1.09441,-0.93767 -2.60196,-1.40649 -4.52394,-1.40649 -1.28088,0 -2.42857,0.22141 -3.44262,0.66419 -0.98742,0.44277 -1.77482,1.09392 -2.3622,1.95346 -0.58695,0.83347 -0.88042,1.84927 -0.88042,3.04739 0,0.83343 0.12009,1.62786 0.36029,2.3832 0.26683,0.75531 0.64023,1.49761 1.12062,2.22691 0.42623,0.62379 0.93631,1.26807 1.53069,1.93289 -1.17171,0.49503 -2.18882,1.07491 -3.05177,1.73959 -0.987412,0.75536 -1.748173,1.6409 -2.281837,2.6567 -0.507029,0.98993 -0.760761,2.12275 -0.760761,3.3992 0,1.40645 0.360293,2.65649 1.080868,3.75053 0.747221,1.09361 1.761714,1.95325 3.04259,2.57848 z m 4.89689,-15.53347 c -0.24106,-0.27535 -0.48562,-0.55417 -0.73324,-0.83644 -0.56074,-0.65119 -1.00095,-1.23721 -1.32106,-1.75815 -0.32055,-0.52089 -0.5472,-1.01579 -0.68085,-1.4846 -0.13319,-0.49486 -0.20001,-1.00276 -0.20001,-1.5237 0,-1.09391 0.34675,-1.96647 1.04069,-2.61761 0.69394,-0.67718 1.56126,-1.01579 2.60239,-1.01579 1.01406,0 1.84163,0.31253 2.48185,0.93763 0.64066,0.59906 0.96078,1.45861 0.96078,2.57857 0,1.2502 -0.46685,2.3702 -1.40098,3.35995 -0.74548,0.81305 -1.66215,1.59981 -2.74957,2.36014 z m 6.57737,11.95683 c -0.59306,0.4522 -1.25511,0.83705 -1.98617,1.15415 -1.17434,0.52123 -2.48229,0.78164 -3.92345,0.78164 -1.30753,0 -2.41548,-0.24762 -3.32253,-0.74243 -0.9075,-0.52081 -1.58834,-1.21125 -2.04209,-2.07046 -0.45331,-0.85964 -0.6804,-1.78448 -0.6804,-2.77411 0,-0.80722 0.14674,-1.60177 0.44021,-2.38316 0.29391,-0.80743 0.76075,-1.56277 1.40141,-2.266 0.42406,-0.46344 0.91799,-0.88482 1.48222,-1.26409 0.30264,0.34777 0.59568,0.69099 0.87955,1.02969 0.50746,0.54698 1.02758,1.11996 1.56125,1.71902 0.53411,0.59906 1.13459,1.27628 1.80189,2.03171 1.06734,1.19804 2.1482,2.38329 3.24261,3.55532 0.37252,0.39893 0.75421,0.8085 1.1455,1.22872 z"
     fill="#181b1f"
     id="path121939"
     style="stroke-width:0.431424" />
  <path
     fill-rule="evenodd"
     clip-rule="evenodd"
     d="m 75.59574,141.16139 v -1.91447 l 3.86755,-0.29706 c 0.0105,-0.59113 0.0157,-1.18226 0.0157,-1.7734 v -18.16704 c 0,-0.60683 -0.005,-1.211 -0.0162,-1.81257 l -3.86711,-0.29719 v -1.91434 h 11.89001 c 1.89491,0 3.52298,0.26045 4.88378,0.78135 1.38788,0.52093 2.45566,1.26324 3.20288,2.22695 0.74722,0.93763 1.12104,2.05763 1.12104,3.35992 0,1.17208 -0.32054,2.20091 -0.96077,3.08645 -0.61402,0.85952 -1.52152,1.56278 -2.72248,2.10972 -1.17433,0.52093 -2.61549,0.8465 -4.32348,0.97671 v 0.0391 c 2.05518,0.10421 3.77628,0.42978 5.16416,0.97671 1.38788,0.52095 2.42857,1.23721 3.12251,2.14884 0.72058,0.88555 1.08087,1.95325 1.08087,3.20371 0,0.98963 -0.22666,1.92726 -0.6804,2.81289 -0.42711,0.85964 -1.09441,1.62807 -2.00147,2.30487 -0.88085,0.67722 -2.015,1.21124 -3.40288,1.60207 -1.38789,0.36439 -3.01596,0.5468 -4.88423,0.5468 z m 7.88664,-22.15197 0.0401,-2.0316 h 2.96224 c 1.36124,0 2.50893,0.15629 3.44306,0.46882 0.93414,0.31257 1.62764,0.80743 2.08139,1.48461 0.48038,0.67723 0.72057,1.58882 0.72057,2.73485 0,1.14601 -0.24019,2.08368 -0.72057,2.81298 -0.48039,0.72927 -1.22761,1.27624 -2.24166,1.64089 -0.98741,0.33857 -2.2552,0.5079 -3.80335,0.5079 H 83.4823 Z m 0,9.61096 h 2.68231 c 2.6954,0 4.65713,0.44278 5.88473,1.32832 1.25425,0.8856 1.88137,2.214 1.88137,3.98484 0,1.66728 -0.62712,2.95652 -1.88137,3.86816 -1.2276,0.88563 -3.14916,1.32802 -5.76464,1.32802 h -2.76222 l -0.0401,-2.03125 z"
     fill="#181b1f"
     id="path121941"
     style="stroke-width:0.431424" />
</svg>
