<?xml version="1.0" encoding="UTF-8" standalone="no"?>
<svg
   id="a"
   viewBox="0 16 38.349998 31.6"
   version="1.1"
   sodipodi:docname="xla.svg"
   width="38.349998"
   height="31.6"
   xmlns:inkscape="http://www.inkscape.org/namespaces/inkscape"
   xmlns:sodipodi="http://sodipodi.sourceforge.net/DTD/sodipodi-0.dtd"
   xmlns="http://www.w3.org/2000/svg"
   xmlns:svg="http://www.w3.org/2000/svg">
  <sodipodi:namedview
     id="namedview644"
     pagecolor="#ffffff"
     bordercolor="#000000"
     borderopacity="0.25"
     inkscape:showpageshadow="2"
     inkscape:pageopacity="0.0"
     inkscape:pagecheckerboard="0"
     inkscape:deskcolor="#d1d1d1"
     showgrid="false" />
  <defs
     id="defs619">
    <style
       id="style617">.b{fill:#5ea8da;}.b,.c,.d,.e{stroke-width:0px;}.c{fill:#3775e0;}.d{fill:#15273b;}.e{fill:#fff;}</style>
  </defs>
  <polygon
     class="d"
     points="8.59,32.09 17.71,16.29 37.82,16.29 46.94,32.09 37.82,47.89 17.71,47.89 "
     id="polygon621"
     transform="translate(-8.59,-0.29)" />
  <polygon
     class="c"
     points="36.73,22.81 37.94,24.89 33.78,32.09 36.73,37.2 34.33,37.2 31.38,32.09 "
     id="polygon623"
     transform="translate(-8.59,-0.29)" />
  <polygon
     class="b"
     points="18.8,41.37 17.59,39.29 21.75,32.09 18.8,26.98 21.2,26.98 24.15,32.09 "
     id="polygon625"
     transform="translate(-8.59,-0.29)" />
  <polygon
     class="e"
     points="28.97,32.09 34.33,22.81 31.92,22.81 30.17,25.84 28.42,22.81 26.02,22.81 28.97,27.92 27.76,30 23.61,22.81 18.8,22.81 17.59,24.89 22.41,24.89 26.56,32.09 21.2,41.37 23.61,41.37 25.36,38.34 27.11,41.37 29.51,41.37 26.56,36.26 27.76,34.17 31.92,41.37 36.73,41.37 37.94,39.29 33.12,39.29 "
     id="polygon627"
     transform="translate(-8.59,-0.29)" />
</svg>
